<svg width="80" height="80" viewBox="0 0 80 80" fill="none" xmlns="http://www.w3.org/2000/svg">
<path d="M46.5015 62.6558H80.0006C80.0006 72.2347 72.9405 80 64.2337 80H46.0107C43.5845 80 41.6172 77.8361 41.6172 75.1654H65.7643C70.0376 75.1654 74.7837 71.7301 74.7837 67.4904H42.108V0H43.3421C51.5401 0 58.1854 7.30919 58.1854 16.3261V51.4838C58.1854 54.1523 56.2181 56.3162 53.7899 56.3162V21.4097C53.7899 12.1173 50.5284 7.00289 46.5015 7.00289V62.6558Z" fill="url(#paint0_linear_545_23692)"/>
<path d="M38.3834 4.83239H14.2363C9.96498 4.83239 5.21889 8.26994 5.21889 12.5096H37.8926V79.9978H36.6585C28.4605 79.9978 21.8152 72.6886 21.8152 63.6717V28.514C21.8152 25.8455 23.7825 23.6816 26.2087 23.6816V58.5881C26.2087 67.8805 29.4722 72.9949 33.4971 72.9949V17.342H0C0 7.76312 7.06003 0 15.7669 0H33.9899C36.416 0 38.3834 2.16389 38.3834 4.83239Z" fill="url(#paint1_linear_545_23692)"/>
<defs>
<linearGradient id="paint0_linear_545_23692" x1="60.8125" y1="80.0022" x2="60.8125" y2="-0.00132567" gradientUnits="userSpaceOnUse">
<stop stop-color="#B37A2C"/>
<stop offset="1" stop-color="#E5BB32"/>
</linearGradient>
<linearGradient id="paint1_linear_545_23692" x1="19.1953" y1="80" x2="19.1953" y2="-0.00132563" gradientUnits="userSpaceOnUse">
<stop stop-color="#B37A2C"/>
<stop offset="1" stop-color="#E5BB32"/>
</linearGradient>
</defs>
</svg>
