<svg width="24" height="24" viewBox="0 0 24 24" fill="none" xmlns="http://www.w3.org/2000/svg">
<path d="M20 7.30039C20 6.42539 19.653 5.58639 19.035 4.96639C18.4147 4.34796 17.5746 4.00061 16.6987 4.00043C15.8228 4.00024 14.9826 4.34723 14.362 4.96539L4.96603 14.3634C4.34836 14.9837 4.00057 15.8235 4.00057 16.6989C4.00057 17.5743 4.34736 18.4141 4.96503 19.0344L5.08403 19.1474C5.71326 19.7152 6.53631 20.0199 7.38356 19.9989C8.23082 19.9779 9.03774 19.6327 9.63803 19.0344L15.988 12.6804C16.2405 12.4273 16.3823 12.0844 16.3823 11.7269C16.3823 11.3694 16.2405 11.0265 15.988 10.7734L15.89 10.6834C15.631 10.4715 15.3025 10.3634 14.9682 10.38C14.6339 10.3966 14.3178 10.5368 14.081 10.7734L7.42503 17.4304C7.23643 17.6125 6.98383 17.7133 6.72163 17.7111C6.45944 17.7088 6.20862 17.6036 6.02321 17.4182C5.83781 17.2328 5.73264 16.982 5.73036 16.7198C5.72808 16.4576 5.82888 16.205 6.01103 16.0164L12.667 9.35839C13.2749 8.75149 14.0926 8.40126 14.9513 8.38004C15.8099 8.35883 16.644 8.66825 17.281 9.24439L17.401 9.35839L17.402 9.35939C18.0292 9.98748 18.3814 10.8388 18.3814 11.7264C18.3814 12.614 18.0292 13.4653 17.402 14.0934L11.05 20.4494C10.0547 21.4417 8.70652 21.9989 7.30103 21.9989C5.89554 21.9989 4.54738 21.4417 3.55203 20.4494H3.55003C2.55741 19.454 2 18.1056 2 16.6999C2 15.2941 2.55741 13.9458 3.55003 12.9504L12.95 3.55039C13.9132 2.59069 15.2079 2.03705 16.5671 2.00357C17.9264 1.97008 19.2467 2.45929 20.256 3.37039L20.447 3.55039L20.448 3.55239C21.4403 4.54773 21.9976 5.8959 21.9976 7.30139C21.9976 8.70688 21.4403 10.055 20.448 11.0504L20.31 11.1874C20.2183 11.2851 20.1079 11.3633 19.9853 11.4175C19.8628 11.4716 19.7306 11.5006 19.5966 11.5027C19.4626 11.5048 19.3296 11.4799 19.2054 11.4296C19.0812 11.3793 18.9684 11.3045 18.8737 11.2097C18.779 11.1149 18.7043 11.0021 18.654 10.8778C18.6038 10.7536 18.579 10.6206 18.5812 10.4866C18.5834 10.3526 18.6125 10.2204 18.6667 10.0979C18.721 9.97541 18.7993 9.86504 18.897 9.77339L19.033 9.63739C19.652 9.01739 19.999 8.17739 19.999 7.30139" fill="#A6A6A6"/>
</svg>
