<svg width="20" height="20" viewBox="0 0 20 20" fill="none" xmlns="http://www.w3.org/2000/svg">
<g clip-path="url(#clip0_872_111968)">
<path d="M8.125 1.875C8.125 1.70924 8.05915 1.55027 7.94194 1.43306C7.82473 1.31585 7.66576 1.25 7.5 1.25C7.33424 1.25 7.17527 1.31585 7.05806 1.43306C6.94085 1.55027 6.875 1.70924 6.875 1.875V2.5H4.375C3.87772 2.5 3.40081 2.69754 3.04917 3.04917C2.69754 3.40081 2.5 3.87772 2.5 4.375V8.125C2.5 8.62228 2.69754 9.09919 3.04917 9.45082C3.40081 9.80245 3.87772 10 4.375 10H7.61C7.66333 9.85667 7.735 9.72125 7.825 9.59375C8.0375 9.29375 8.3375 9.06875 8.6875 8.9425L9.2875 8.75H4.375C4.20924 8.75 4.05027 8.68415 3.93306 8.56694C3.81585 8.44973 3.75 8.29076 3.75 8.125V4.375C3.75 4.20924 3.81585 4.05027 3.93306 3.93306C4.05027 3.81585 4.20924 3.75 4.375 3.75H10.625C10.7908 3.75 10.9497 3.81585 11.0669 3.93306C11.1842 4.05027 11.25 4.20924 11.25 4.375V6.72125L11.4162 6.2125C11.5537 5.8375 11.7787 5.5375 12.0787 5.325C12.2112 5.23 12.3517 5.15625 12.5 5.10375V4.375C12.5 3.87772 12.3025 3.40081 11.9508 3.04917C11.5992 2.69754 11.1223 2.5 10.625 2.5H8.125V1.875ZM3.125 11.875H8.01625C8.21091 12.0733 8.45001 12.2224 8.71375 12.31L10.0387 12.7475C10.2275 12.8112 10.4025 12.9112 10.6275 13.1112L10.64 13.125H3.125C2.95924 13.125 2.80027 13.1908 2.68306 13.3081C2.56585 13.4253 2.5 13.5842 2.5 13.75V14.1875C2.5 15.3687 3.01 16.1562 3.8525 16.68C4.7325 17.2275 6.00625 17.5 7.5 17.5C9.00375 17.5 10.2775 17.2262 11.1537 16.68C11.5062 16.4612 11.8 16.195 12.0225 15.8725L12.0912 15.9287C12.2662 16.0537 12.4537 16.1412 12.6537 16.1912C12.5092 16.5022 12.4668 16.8509 12.5325 17.1875C12.3131 17.3964 12.0727 17.582 11.815 17.7412C10.66 18.4625 9.12125 18.75 7.5 18.75C5.8875 18.75 4.34875 18.46 3.1925 17.7412C1.99875 17 1.25 15.8187 1.25 14.1875V13.75C1.25 13.2527 1.44754 12.7758 1.79917 12.4242C2.15081 12.0725 2.62772 11.875 3.125 11.875ZM6.5625 6.25C6.5625 6.49864 6.46373 6.7371 6.28791 6.91291C6.1121 7.08873 5.87364 7.1875 5.625 7.1875C5.37636 7.1875 5.1379 7.08873 4.96209 6.91291C4.78627 6.7371 4.6875 6.49864 4.6875 6.25C4.6875 6.00136 4.78627 5.7629 4.96209 5.58709C5.1379 5.41127 5.37636 5.3125 5.625 5.3125C5.87364 5.3125 6.1121 5.41127 6.28791 5.58709C6.46373 5.7629 6.5625 6.00136 6.5625 6.25ZM9.375 7.1875C9.62364 7.1875 9.8621 7.08873 10.0379 6.91291C10.2137 6.7371 10.3125 6.49864 10.3125 6.25C10.3125 6.00136 10.2137 5.7629 10.0379 5.58709C9.8621 5.41127 9.62364 5.3125 9.375 5.3125C9.12636 5.3125 8.8879 5.41127 8.71209 5.58709C8.53627 5.7629 8.4375 6.00136 8.4375 6.25C8.4375 6.49864 8.53627 6.7371 8.71209 6.91291C8.8879 7.08873 9.12636 7.1875 9.375 7.1875ZM13.5975 6.6025L14.0325 7.94125C14.1674 8.34845 14.3957 8.71844 14.6991 9.02165C15.0026 9.32486 15.3727 9.55289 15.78 9.6875L17.12 10.1225L17.1462 10.13C17.2495 10.1663 17.3389 10.2338 17.4022 10.3232C17.4655 10.4125 17.4994 10.5193 17.4994 10.6287C17.4994 10.7382 17.4655 10.845 17.4022 10.9343C17.3389 11.0237 17.2495 11.0912 17.1462 11.1275L15.8075 11.5625C15.4 11.6969 15.0296 11.9249 14.7259 12.2281C14.4223 12.5313 14.1938 12.9014 14.0587 13.3087L13.6237 14.6462C13.5874 14.7495 13.5199 14.8389 13.4306 14.9022C13.3412 14.9655 13.2345 14.9994 13.125 14.9994C13.0155 14.9994 12.9088 14.9655 12.8194 14.9022C12.7301 14.8389 12.6626 14.7495 12.6262 14.6462L12.1912 13.3087C12.0349 12.8352 11.7528 12.413 11.375 12.0875C11.1018 11.8503 10.7845 11.6693 10.4412 11.555L9.10125 11.12C8.99799 11.0837 8.90857 11.0162 8.84531 10.9268C8.78204 10.8375 8.74807 10.7307 8.74807 10.6212C8.74807 10.5118 8.78204 10.405 8.84531 10.3157C8.90857 10.2263 8.99799 10.1588 9.10125 10.1225L10.4412 9.6875C10.8437 9.54942 11.2086 9.31984 11.5073 9.01683C11.8059 8.71382 12.0302 8.34564 12.1625 7.94125L12.5975 6.60375C12.6336 6.50006 12.701 6.41017 12.7905 6.34657C12.88 6.28296 12.9871 6.24878 13.0969 6.24878C13.2067 6.24878 13.3137 6.28296 13.4032 6.34657C13.4927 6.41017 13.5602 6.50006 13.5962 6.60375M19.7275 16.5175L18.7712 16.2075C18.4804 16.1108 18.216 15.9478 17.999 15.7312C17.7821 15.5147 17.6185 15.2507 17.5212 14.96L17.2112 14.0037C17.1854 13.9299 17.1372 13.8659 17.0734 13.8207C17.0095 13.7754 16.9332 13.7511 16.855 13.7511C16.7768 13.7511 16.7005 13.7754 16.6366 13.8207C16.5728 13.8659 16.5246 13.9299 16.4987 14.0037L16.1862 14.96C16.0911 15.2484 15.9308 15.511 15.7177 15.7274C15.5046 15.9437 15.2444 16.108 14.9575 16.2075L14.0012 16.5175C13.9462 16.5371 13.8965 16.5692 13.8559 16.6112C13.8153 16.6532 13.785 16.704 13.7673 16.7597C13.7497 16.8154 13.7451 16.8744 13.754 16.9321C13.7629 16.9899 13.7851 17.0448 13.8187 17.0925C13.8637 17.155 13.9275 17.205 14.0012 17.23L14.9575 17.5412C15.2489 17.6384 15.5136 17.8022 15.7306 18.0197C15.9476 18.2371 16.1109 18.5021 16.2075 18.7937L16.5175 19.7487C16.5434 19.8226 16.5916 19.8866 16.6554 19.9318C16.7192 19.9771 16.7955 20.0014 16.8737 20.0014C16.952 20.0014 17.0283 19.9771 17.0921 19.9318C17.1559 19.8866 17.2041 19.8226 17.23 19.7487L17.5412 18.7937C17.6382 18.503 17.8015 18.2388 18.0183 18.022C18.235 17.8053 18.4992 17.642 18.79 17.545L19.7462 17.235C19.8201 17.2091 19.8841 17.1609 19.9293 17.0971C19.9746 17.0333 19.9989 16.957 19.9989 16.8787C19.9989 16.8005 19.9746 16.7242 19.9293 16.6604C19.8841 16.5966 19.8201 16.5484 19.7462 16.5225L19.7275 16.5175Z" fill="#262626"/>
</g>
<defs>
<clipPath id="clip0_872_111968">
<rect width="20" height="20" fill="white"/>
</clipPath>
</defs>
</svg>
