<svg width="282" height="261" viewBox="0 0 282 261" fill="none" xmlns="http://www.w3.org/2000/svg">
<path d="M257.417 16.8397H187.742V86.3957H257.417V16.8397Z" fill="#E0E0E0"/>
<path d="M252.694 16.8397H183.02V86.3957H252.694V16.8397Z" fill="#FAFAFA"/>
<path d="M252.712 86.4196H183V16.8218H252.712V86.4196ZM183.037 86.3778H252.662V16.8637H183.037V86.3778Z" fill="#E0E0E0"/>
<path d="M243.325 26.1896H192.383V77.0458H243.325V26.1896Z" fill="#FAFAFA"/>
<path d="M192.382 77.3866C192.027 77.8996 191.607 78.3693 191.134 78.7855C190.322 79.6105 189.18 80.7224 187.894 81.93C186.608 83.1376 185.435 84.2137 184.567 84.9789C184.127 85.4317 183.632 85.833 183.094 86.1745C183.45 85.6638 183.869 85.1961 184.342 84.7816C185.154 83.9566 186.302 82.8447 187.582 81.6311C188.861 80.4175 190.047 79.3355 190.921 78.5762C191.357 78.1258 191.848 77.7265 192.382 77.3866Z" fill="#E0E0E0"/>
<path d="M243.309 77.2611C243.842 77.6039 244.333 78.0052 244.769 78.4567C245.631 79.2399 246.792 80.3339 248.053 81.5594C249.314 82.7849 250.443 83.9148 251.242 84.7458C251.715 85.1673 252.134 85.6409 252.491 86.1566C251.958 85.8149 251.47 85.4135 251.036 84.961C250.175 84.1838 249.014 83.0838 247.747 81.8523C246.48 80.6208 245.356 79.4611 244.557 78.66C244.084 78.243 243.665 77.7734 243.309 77.2611Z" fill="#E0E0E0"/>
<path d="M243.191 26.345C243.551 25.8347 243.97 25.3654 244.44 24.9461C245.258 24.1211 246.4 23.0092 247.679 21.8016C248.959 20.594 250.139 19.5179 251.007 18.7527C251.447 18.2999 251.941 17.8986 252.48 17.5571C252.122 18.0686 251.703 18.5381 251.231 18.956C250.414 19.775 249.271 20.8929 247.985 22.1005C246.699 23.3081 245.52 24.3961 244.652 25.1613C244.218 25.6121 243.727 26.0097 243.191 26.345Z" fill="#E0E0E0"/>
<path d="M192.25 26.4526C191.714 26.1121 191.224 25.7106 190.789 25.2569C189.928 24.4738 188.767 23.3798 187.506 22.1543C186.245 20.9288 185.122 19.7989 184.323 18.9679C183.85 18.5464 183.431 18.0729 183.074 17.5571C183.607 17.8988 184.095 18.3002 184.529 18.7527C185.39 19.5358 186.557 20.6298 187.818 21.8613C189.079 23.0928 190.215 24.2526 191.014 25.0537C191.485 25.4693 191.9 25.9392 192.25 26.4526Z" fill="#E0E0E0"/>
<path d="M243.186 77.0458C243.181 76.9642 243.181 76.8823 243.186 76.8007C243.186 76.6274 243.186 76.3942 243.186 76.0893C243.186 75.4556 243.186 74.535 243.186 73.3453C243.186 70.9541 243.155 67.4329 243.13 62.9792C243.13 54.0717 243.074 41.3861 243.03 26.1896L243.23 26.3809H192.432L192.663 26.1597C192.663 44.8295 192.663 62.2917 192.625 77.0159L192.432 76.8306L229.217 76.9263L239.547 76.9741H242.281H242.987H243.236C243.162 76.9838 243.086 76.9838 243.012 76.9741H242.325H239.628L229.341 77.0219L192.432 77.1116H192.238V76.9203C192.238 62.1961 192.238 44.7338 192.207 26.064V25.8488H192.438L243.236 25.8787H243.43V26.064C243.392 41.3084 243.355 54.0418 243.33 62.9792C243.33 67.409 243.293 70.9003 243.28 73.2975C243.28 74.4932 243.28 75.3779 243.28 76.0056C243.28 76.3045 243.28 76.5257 243.28 76.6991C243.264 76.818 243.233 76.9345 243.186 77.0458Z" fill="#E0E0E0"/>
<path d="M226.353 43.4784H209.355V59.7569H226.353V43.4784Z" fill="#EBEBEB"/>
<path d="M117.1 13.3095L109.609 13.3483L109.811 49.0374L117.301 48.9986L117.1 13.3095Z" fill="#E0E0E0"/>
<path d="M64.1205 13.4107L44.7266 13.5112L44.8379 33.215L64.2318 33.1145L64.1205 13.4107Z" fill="#EBEBEB"/>
<path d="M83.4252 13.3048L64.0312 13.4053L64.1426 33.109L83.5365 33.0085L83.4252 13.3048Z" fill="#F5F5F5"/>
<path d="M44.7608 18.9554C57.6612 19.059 70.5616 19.0012 83.4619 18.7822C83.5166 18.7822 83.569 18.7615 83.6076 18.7245C83.6462 18.6875 83.6679 18.6374 83.6679 18.5851C83.6679 18.5328 83.6462 18.4827 83.6076 18.4457C83.569 18.4088 83.5166 18.388 83.4619 18.388C70.5782 18.3223 57.657 18.388 44.7608 18.615C44.7194 18.6225 44.6819 18.6436 44.655 18.6746C44.628 18.7057 44.6133 18.7448 44.6133 18.7852C44.6133 18.8256 44.628 18.8647 44.655 18.8958C44.6819 18.9269 44.7194 18.948 44.7608 18.9554Z" fill="#E0E0E0"/>
<path d="M67.8847 32.7842L32.6484 32.9668L32.7392 49.0239L67.9754 48.8413L67.8847 32.7842Z" fill="#EBEBEB"/>
<path d="M103.213 32.1007L67.9766 32.4382L68.1442 48.4955L103.381 48.1581L103.213 32.1007Z" fill="#F5F5F5"/>
<path d="M32.6569 37.4337C56.0711 37.6846 79.5602 37.4337 102.968 37.0992C103.023 37.0992 103.075 37.0785 103.114 37.0415C103.152 37.0045 103.174 36.9544 103.174 36.9021C103.174 36.8499 103.152 36.7997 103.114 36.7628C103.075 36.7258 103.023 36.705 102.968 36.705C79.5602 36.5856 56.0711 36.6035 32.6632 37.0933C32.6217 37.1007 32.5843 37.1218 32.5573 37.1529C32.5304 37.184 32.5156 37.2231 32.5156 37.2635C32.5156 37.3039 32.5304 37.343 32.5573 37.3741C32.5843 37.4052 32.6217 37.4263 32.6632 37.4337H32.6569Z" fill="#E0E0E0"/>
<path d="M155.999 49.0262H19.4844V54.7772H155.999V49.0262Z" fill="#E0E0E0"/>
<path d="M47.375 51.7881H41.832V71.4144H47.375V51.7881Z" fill="#E0E0E0"/>
<path d="M130.109 51.7881H124.566V71.4144H130.109V51.7881Z" fill="#E0E0E0"/>
<path d="M124.416 0.000126636L116.926 0.0389404L117.203 49.1249L124.694 49.0861L124.416 0.000126636Z" fill="#EBEBEB"/>
<path d="M136.12 9.13978L124.484 9.20007L124.709 48.9782L136.344 48.9179L136.12 9.13978Z" fill="#F5F5F5"/>
<path d="M136.04 16.8097C136.04 16.9172 133.431 17.0068 130.216 17.0068C127.001 17.0068 124.398 16.9172 124.398 16.8097C124.398 16.7022 127.008 16.6186 130.216 16.6186C133.425 16.6186 136.04 16.7022 136.04 16.8097Z" fill="#E0E0E0"/>
<path d="M136.04 15.1417C136.04 15.2493 133.431 15.3329 130.216 15.3329C127.001 15.3329 124.398 15.2493 124.398 15.1417C124.398 15.0342 127.008 14.9446 130.216 14.9446C133.425 14.9446 136.04 15.0342 136.04 15.1417Z" fill="#E0E0E0"/>
<path d="M136.04 42.9403C136.04 43.0478 133.431 43.1374 130.216 43.1374C127.001 43.1374 124.398 43.0478 124.398 42.9403C124.398 42.8328 127.008 42.7492 130.216 42.7492C133.425 42.7492 136.04 42.8328 136.04 42.9403Z" fill="#E0E0E0"/>
<path d="M136.04 41.2902C136.04 41.3977 133.431 41.4813 130.216 41.4813C127.001 41.4813 124.398 41.3977 124.398 41.2902C124.398 41.1827 127.008 41.0931 130.216 41.0931C133.425 41.0931 136.04 41.1648 136.04 41.2902Z" fill="#E0E0E0"/>
<path d="M130.403 37.6258C130.297 37.6258 130.203 33.6085 130.203 28.6586C130.203 23.7087 130.297 19.6913 130.403 19.6913C130.509 19.6913 130.609 23.7027 130.609 28.6586C130.609 33.6145 130.516 37.6258 130.403 37.6258Z" fill="#E0E0E0"/>
<path d="M148.825 18.9142H136.16V48.9425H148.825V18.9142Z" fill="#EBEBEB"/>
<path d="M122.709 8.41061C122.709 8.81853 122.583 9.21729 122.346 9.55646C122.11 9.89563 121.773 10.16 121.38 10.3161C120.986 10.4722 120.553 10.513 120.136 10.4334C119.718 10.3539 119.334 10.1574 119.033 9.869C118.732 9.58056 118.527 9.21306 118.444 8.81298C118.361 8.4129 118.403 7.99821 118.566 7.62134C118.729 7.24447 119.005 6.92236 119.359 6.69573C119.714 6.46911 120.13 6.34814 120.556 6.34814C121.127 6.34972 121.673 6.56752 122.077 6.95397C122.48 7.34042 122.708 7.8641 122.709 8.41061Z" fill="#E0E0E0"/>
<path d="M121.216 14.0599H119.887V43.2633H121.216V14.0599Z" fill="#E0E0E0"/>
<path d="M190.514 70.7329C189.711 69.4969 189.191 68.1119 188.987 66.6693C188.784 65.2266 188.902 63.7591 189.334 62.3634C189.911 60.7447 190.734 59.2159 191.775 57.826C192.865 56.1238 194.252 54.6133 195.876 53.3603C195.177 53.9581 196.132 53.175 195.876 53.3603C196.169 53.0913 196.556 51.5669 196.737 51.1962C197.686 49.4028 198.367 48.8647 199.022 48.6675C199.933 48.346 200.876 48.1176 201.837 47.9859C203.136 47.8006 205.339 48.6794 206.431 49.3729C206.685 48.574 207.148 47.8506 207.776 47.2718C208.404 46.6931 209.177 46.2782 210.021 46.0669C210.87 45.8676 211.753 45.8412 212.613 45.9895C213.473 46.1378 214.291 46.4575 215.014 46.9278C215.086 46.994 215.172 47.0429 215.267 47.0706C215.362 47.0982 215.463 47.1038 215.56 47.0869C215.658 47.0699 215.75 47.0309 215.829 46.9731C215.907 46.9153 215.971 46.8403 216.013 46.7544C216.509 46.1463 217.168 45.6788 217.92 45.4018C218.672 45.1249 219.489 45.049 220.283 45.1822C221.068 45.3524 221.763 45.7883 222.24 46.4098C222.717 47.0314 222.944 47.7969 222.879 48.5658C223.489 48.1077 224.229 47.8373 225.003 47.7903C225.776 47.7433 226.546 47.9219 227.211 48.3026C227.877 48.6833 228.406 49.2482 228.729 49.9227C229.052 50.5972 229.154 51.3498 229.022 52.081C230.158 51.8478 231.462 51.6506 232.386 52.3321C232.941 52.8263 233.363 53.4413 233.618 54.1249C233.872 54.8086 233.95 55.5408 233.847 56.2597C233.577 57.5163 232.961 58.6806 232.062 59.6314C231.007 60.5281 230.101 59.9602 228.722 60.2292C226.668 60.6656 224.496 61.0841 222.48 60.4684" fill="#263238"/>
<path d="M235.618 72.0601C235.16 66.5045 232.536 61.3174 228.267 57.5303C223.998 53.7432 218.397 51.6335 212.578 51.6207H211.38C198.446 52.3202 191.842 63.2243 192.928 75.5872L195.231 132.685H224.869L224.607 114.105C224.607 114.105 237.041 112.275 237.216 100.355C237.322 94.6277 236.498 82.7789 235.618 72.0601Z" fill="#FFBE9D"/>
<path d="M224.73 114.087C218.958 114.078 213.31 112.483 208.457 109.489C208.457 109.489 212.271 118.062 224.687 117.016L224.73 114.087Z" fill="#995037"/>
<path d="M230.811 81.4637C230.815 81.9069 230.637 82.3338 230.316 82.6533C229.996 82.9728 229.557 83.1595 229.095 83.1735C228.869 83.1906 228.641 83.1641 228.426 83.0956C228.211 83.0272 228.012 82.9181 227.842 82.7749C227.671 82.6317 227.532 82.4572 227.433 82.2618C227.335 82.0664 227.277 81.854 227.266 81.6371C227.262 81.1939 227.44 80.767 227.761 80.4476C228.081 80.1281 228.52 79.9414 228.982 79.9274C229.208 79.9111 229.435 79.9382 229.65 80.007C229.865 80.0757 230.063 80.1848 230.233 80.3279C230.404 80.4709 230.543 80.6451 230.642 80.8401C230.741 81.0351 230.799 81.2471 230.811 81.4637Z" fill="#263238"/>
<path d="M232.936 77.8768C232.711 78.0979 231.369 77.1414 229.459 77.1474C227.549 77.1534 226.151 78.0561 225.945 77.8349C225.845 77.7333 226.07 77.3327 226.681 76.9083C227.509 76.3631 228.492 76.075 229.496 76.0833C230.49 76.0839 231.458 76.3852 232.262 76.9442C232.842 77.3806 233.042 77.7572 232.936 77.8768Z" fill="#263238"/>
<path d="M212.421 82.2767C212.426 82.7209 212.249 83.1494 211.928 83.4701C211.607 83.7909 211.168 83.9784 210.704 83.9925C210.478 84.0087 210.251 83.9816 210.036 83.9129C209.821 83.8441 209.623 83.735 209.453 83.5919C209.282 83.4489 209.144 83.2747 209.044 83.0797C208.945 82.8847 208.888 82.6727 208.875 82.4561C208.875 82.0138 209.053 81.5886 209.373 81.2698C209.693 80.951 210.13 80.7633 210.592 80.7463C210.817 80.7293 211.044 80.7555 211.259 80.8236C211.474 80.8917 211.672 81.0002 211.842 81.1428C212.013 81.2854 212.152 81.4592 212.251 81.6539C212.35 81.8486 212.408 82.0604 212.421 82.2767Z" fill="#263238"/>
<path d="M214.143 78.7914C213.919 79.0126 212.577 78.0561 210.666 78.0561C208.756 78.0561 207.358 78.9708 207.152 78.7496C207.052 78.648 207.271 78.2474 207.882 77.823C208.713 77.2787 209.698 76.9908 210.704 76.998C211.695 76.9987 212.661 77.3 213.463 77.8589C214.05 78.2893 214.249 78.6958 214.143 78.7914Z" fill="#263238"/>
<path d="M221.067 91.7581C221.067 91.6565 222.247 91.4592 224.188 91.232C224.675 91.1842 225.137 91.0886 225.225 90.7717C225.266 90.2886 225.152 89.8049 224.9 89.3848C224.442 88.2569 223.964 87.0712 223.464 85.8278C221.473 80.7583 220.031 76.5975 220.243 76.5198C220.456 76.4421 222.247 80.4893 224.238 85.5588L225.612 89.1457C225.919 89.7097 226.008 90.3602 225.861 90.981C225.791 91.1447 225.683 91.2908 225.544 91.408C225.405 91.5251 225.241 91.6101 225.062 91.6565C224.792 91.7271 224.513 91.7652 224.232 91.7701C222.278 91.8598 221.074 91.8657 221.067 91.7581Z" fill="#263238"/>
<path d="M215.435 93.0136C215.747 93.0136 215.747 94.9804 217.52 96.3972C219.293 97.814 221.496 97.5928 221.515 97.8738C221.515 97.9934 221.022 98.2564 220.085 98.2803C218.871 98.2909 217.691 97.8932 216.752 97.1564C215.852 96.4476 215.274 95.4316 215.142 94.3228C215.06 93.4918 215.298 93.0016 215.435 93.0136Z" fill="#263238"/>
<path d="M215.122 74.6486C214.941 75.1448 213.031 74.9296 210.79 75.2106C208.549 75.4916 206.751 76.0953 206.42 75.653C206.289 75.4437 206.595 74.9715 207.319 74.4573C208.294 73.8576 209.399 73.479 210.55 73.3506C211.701 73.2221 212.868 73.3471 213.961 73.716C214.785 74.0269 215.209 74.4095 215.122 74.6486Z" fill="#263238"/>
<path d="M233.404 72.5921C233.042 73.0465 231.394 72.7715 229.465 72.9389C227.536 73.1062 225.932 73.5367 225.514 73.166C225.326 72.9747 225.514 72.5323 226.213 72.072C227.146 71.4886 228.221 71.1485 229.334 71.0856C230.439 70.9829 231.553 71.1645 232.561 71.6117C233.316 71.9704 233.566 72.3769 233.404 72.5921Z" fill="#263238"/>
<path d="M194.789 84.3989C194.608 84.3332 186.256 81.9419 186.493 90.1021C186.73 98.2623 195.232 96.3134 195.232 96.0803C195.232 95.8471 194.789 84.3989 194.789 84.3989Z" fill="#FFBE9D"/>
<path d="M193.305 93.0733C193.267 93.0733 193.161 93.175 192.918 93.2945C192.57 93.4468 192.175 93.4661 191.813 93.3483C190.901 93.0554 190.102 91.7163 190.015 90.2516C189.973 89.5533 190.095 88.8548 190.371 88.2071C190.441 87.9509 190.575 87.7151 190.762 87.5202C190.949 87.3253 191.184 87.1773 191.444 87.0892C191.613 87.0402 191.795 87.05 191.957 87.1167C192.119 87.1834 192.252 87.3028 192.331 87.4539C192.456 87.6751 192.406 87.8424 192.449 87.8544C192.493 87.8664 192.63 87.7109 192.549 87.3761C192.497 87.1751 192.373 86.9977 192.2 86.874C191.959 86.715 191.664 86.6507 191.376 86.6946C191.028 86.7693 190.707 86.9284 190.442 87.1567C190.177 87.3849 189.979 87.6747 189.865 87.9979C189.526 88.7132 189.376 89.4975 189.428 90.2815C189.528 91.9196 190.458 93.4261 191.694 93.7309C191.924 93.7886 192.165 93.7959 192.398 93.7525C192.631 93.709 192.852 93.6158 193.042 93.4799C193.298 93.3005 193.361 93.0853 193.305 93.0733Z" fill="#995037"/>
<path d="M200.359 60.2113L204.56 56.738L217.918 58.6989L227.281 56.3853L232.899 57.2043C231.851 58.5614 232.712 56.744 230.571 55.1957C225.966 51.7787 220.351 49.8433 214.529 49.6659C208.755 49.5702 196.988 56.3076 192.806 60.1217C189.454 63.1765 189.479 65.8189 189.479 65.8189C188.942 70.2188 191.514 75.2165 192.538 79.5388C193.062 81.7686 194.086 88.506 194.086 88.506C196.033 88.506 196.764 87.0115 196.464 85.1642L196.102 77.9127C196.102 77.9127 202.725 73.3932 199.604 65.1254C199.098 64.4618 198.025 61.4428 200.359 60.2113Z" fill="#263238"/>
<path d="M198.625 62.1483C199.374 59.8288 202.02 58.382 204.555 58.4119C207.089 58.4418 209.467 59.7092 211.315 61.401C211.768 61.859 212.28 62.2607 212.838 62.5966C213.117 62.7596 213.434 62.8546 213.76 62.8733C214.087 62.8921 214.413 62.834 214.71 62.7043C214.885 62.6146 215.073 62.4771 215.266 62.5309C215.399 62.5834 215.51 62.6784 215.578 62.7999C216.059 63.552 216.737 64.1703 217.544 64.5934C217.949 64.7887 218.407 64.8579 218.855 64.7915C219.303 64.725 219.717 64.5261 220.041 64.2227C220.506 64.6342 221.086 64.9065 221.71 65.0064C222.334 65.1062 222.976 65.029 223.555 64.7845C224.134 64.5399 224.625 64.1386 224.969 63.6299C225.313 63.1211 225.495 62.5272 225.491 61.9211C226.602 62.2858 227.806 61.6342 228.612 60.7972C229.24 60.1289 229.704 59.3343 229.97 58.4718C230.236 57.6093 230.297 56.7008 230.148 55.8128C230 54.9249 229.646 54.08 229.112 53.3401C228.578 52.6002 227.878 51.9841 227.064 51.537C225.785 50.9109 224.393 50.5253 222.963 50.4012C220.731 50.0966 218.481 49.9348 216.227 49.917C215.239 49.8574 214.247 49.9688 213.3 50.2458C212.008 50.6941 210.934 51.7044 209.555 51.8658C208.674 51.9012 207.795 51.767 206.97 51.4713C205.767 51.0746 204.497 50.8962 203.225 50.9452C200.728 51.1604 198.687 52.8702 197.039 54.6696C195.797 55.8721 194.898 57.3605 194.43 58.9918C194.068 60.6358 194.598 62.5787 196.09 63.4515C196.375 63.6395 196.702 63.7603 197.045 63.8039C197.388 63.8475 197.737 63.8128 198.063 63.7026C198.382 63.5755 198.636 63.3327 198.77 63.027C198.903 62.7213 198.905 62.3775 198.774 62.0706" fill="#263238"/>
<path d="M194.796 121.398L160.277 137.832L174.516 215.733L166.282 260.653L255.076 260.821L249.309 174.233L261.668 139.452L224.721 120.979C214.215 132.888 204.153 130.479 194.796 121.398Z" fill="#7650A3"/>
<path d="M230.313 188.061C230.313 188.061 230.313 187.869 230.275 187.499C230.238 187.128 230.275 186.566 230.219 185.855C230.175 184.402 230.119 182.268 230.044 179.607C229.907 174.227 229.72 166.509 229.489 157.261L229.751 157.315C227.244 162.49 224.265 167.443 220.85 172.117L220.681 172.35L220.575 172.087C218.702 167.436 216.48 162.522 213.921 157.632L212.541 155.025H212.822C209.545 160.567 207.2 166.569 205.875 172.81L205.819 173.073L205.619 172.882L194.658 162.51L194.882 162.402C195.535 168.901 196.706 175.342 198.384 181.67C199.008 183.942 199.52 185.705 199.889 186.901C200.076 187.499 200.213 187.947 200.313 188.264C200.413 188.581 200.45 188.736 200.45 188.736C200.45 188.736 200.382 188.581 200.276 188.276C200.17 187.971 200.013 187.511 199.814 186.925C199.42 185.729 198.865 183.971 198.241 181.706C196.502 175.383 195.292 168.938 194.62 162.432L194.602 162.05L194.864 162.295L205.837 172.661L205.581 172.733C206.905 166.466 209.254 160.44 212.541 154.876L212.691 154.625L212.829 154.882C213.284 155.749 213.746 156.615 214.214 157.494C216.774 162.414 218.996 167.316 220.868 171.979L220.594 171.943C224.004 167.286 226.985 162.354 229.501 157.201L229.757 156.681V157.279C229.938 166.527 230.088 174.227 230.194 179.625C230.232 182.31 230.269 184.408 230.294 185.878C230.294 186.584 230.294 187.134 230.294 187.522C230.294 187.911 230.313 188.061 230.313 188.061Z" fill="#263238"/>
<path d="M192.115 156.466C192.115 156.466 192.215 156.388 192.427 156.364C192.737 156.346 193.046 156.417 193.314 156.567C193.518 156.679 193.696 156.83 193.838 157.01C193.98 157.189 194.082 157.395 194.138 157.614C194.19 157.892 194.159 158.179 194.049 158.441C193.938 158.704 193.753 158.931 193.513 159.096C193.288 159.277 193.017 159.397 192.727 159.444C192.438 159.491 192.141 159.464 191.866 159.365C191.641 159.283 191.444 159.144 191.295 158.963C191.147 158.782 191.053 158.566 191.023 158.337C191.01 158.184 191.036 158.03 191.101 157.889C191.165 157.748 191.265 157.625 191.391 157.53C191.578 157.404 191.71 157.404 191.71 157.422C191.71 157.44 191.61 157.482 191.479 157.62C191.39 157.712 191.323 157.822 191.283 157.942C191.244 158.062 191.231 158.188 191.248 158.313C191.288 158.494 191.376 158.662 191.504 158.8C191.632 158.938 191.795 159.042 191.978 159.102C192.205 159.171 192.446 159.184 192.679 159.14C192.913 159.097 193.131 158.997 193.314 158.851C193.507 158.717 193.658 158.534 193.749 158.323C193.84 158.112 193.869 157.881 193.832 157.656C193.751 157.286 193.528 156.96 193.208 156.741C192.877 156.554 192.499 156.458 192.115 156.466Z" fill="#263238"/>
<path d="M212.777 149.806C212.777 149.806 212.889 149.74 213.114 149.752C213.426 149.781 213.722 149.9 213.963 150.093C214.15 150.238 214.302 150.42 214.41 150.626C214.518 150.832 214.578 151.058 214.587 151.289C214.573 151.576 214.479 151.854 214.316 152.096C214.153 152.337 213.926 152.533 213.659 152.663C213.391 152.793 213.092 152.853 212.792 152.836C212.493 152.819 212.203 152.727 211.953 152.568C211.766 152.423 211.613 152.241 211.506 152.035C211.398 151.829 211.338 151.603 211.328 151.372C211.305 151.067 211.381 150.762 211.547 150.5C211.672 150.32 211.778 150.26 211.79 150.272C211.607 150.604 211.526 150.98 211.559 151.354C211.583 151.548 211.646 151.734 211.746 151.904C211.845 152.073 211.979 152.222 212.14 152.341C212.348 152.46 212.583 152.527 212.826 152.535C213.068 152.544 213.308 152.493 213.524 152.387C213.74 152.282 213.924 152.126 214.06 151.934C214.196 151.742 214.278 151.52 214.3 151.289C214.296 151.094 214.251 150.903 214.168 150.725C214.086 150.548 213.967 150.387 213.819 150.254C213.525 150.01 213.163 149.854 212.777 149.806Z" fill="#263238"/>
<path d="M231.128 151.623C230.742 151.672 230.384 151.842 230.11 152.108C229.973 152.248 229.87 152.415 229.808 152.598C229.747 152.781 229.728 152.975 229.755 153.166C229.807 153.389 229.929 153.591 230.106 153.745C230.282 153.899 230.504 153.998 230.741 154.027C230.974 154.08 231.219 154.063 231.443 153.978C231.666 153.894 231.857 153.746 231.989 153.554C232.084 153.386 232.138 153.199 232.147 153.007C232.157 152.816 232.122 152.625 232.045 152.448C231.89 152.106 231.617 151.826 231.271 151.653C231.271 151.653 231.403 151.653 231.602 151.713C231.891 151.851 232.122 152.078 232.258 152.359C232.365 152.567 232.42 152.796 232.42 153.028C232.42 153.26 232.365 153.489 232.258 153.698C232.09 153.939 231.852 154.127 231.574 154.24C231.295 154.353 230.989 154.386 230.691 154.334C230.394 154.281 230.119 154.147 229.9 153.947C229.682 153.747 229.529 153.49 229.461 153.208C229.437 152.976 229.468 152.742 229.554 152.524C229.639 152.307 229.777 152.111 229.954 151.952C230.181 151.737 230.479 151.603 230.797 151.576C231.016 151.558 231.134 151.611 231.128 151.623Z" fill="#263238"/>
<path d="M234.348 189.728C234.211 189.742 234.073 189.742 233.936 189.728H228.412C224.741 189.728 219.673 189.806 214.092 190.063C208.512 190.32 203.481 190.709 199.798 191.044L195.478 191.45L194.299 191.552C194.162 191.568 194.024 191.568 193.887 191.552C194.019 191.512 194.155 191.486 194.292 191.474L195.46 191.313C196.477 191.175 197.957 190.996 199.779 190.804C203.425 190.416 208.475 189.991 214.074 189.734C219.673 189.477 224.741 189.441 228.431 189.489C230.266 189.489 231.751 189.555 232.8 189.597L233.98 189.651C234.105 189.665 234.228 189.691 234.348 189.728Z" fill="#263238"/>
<path d="M248.087 182.148L275.583 180.994C275.583 180.994 269.21 140.941 260.278 138.699C251.345 136.457 245.684 161.482 245.684 161.482L248.087 182.148Z" fill="#7650A3"/>
<path d="M145.355 191.032C145.487 189.597 150.143 142.298 160.337 137.826C170.53 133.354 176.566 187.313 176.566 187.313L145.355 191.032Z" fill="#7650A3"/>
<path d="M251.547 207.83C251.547 207.83 251.547 207.788 251.547 207.699L251.503 207.298C251.472 206.922 251.428 206.407 251.378 205.768C251.278 204.405 251.147 202.48 250.979 200.118C250.667 195.336 250.286 188.76 249.961 181.473C249.637 174.185 249.431 167.579 249.368 162.803C249.368 160.411 249.331 158.48 249.368 157.141C249.368 156.496 249.368 155.982 249.368 155.605C249.361 155.425 249.372 155.245 249.399 155.067C249.399 155.067 249.399 155.115 249.399 155.204C249.399 155.294 249.399 155.444 249.399 155.605C249.399 155.982 249.399 156.496 249.437 157.141C249.437 158.504 249.499 160.429 249.549 162.797C249.674 167.579 249.899 174.155 250.236 181.461C250.573 188.766 250.91 195.336 251.16 200.106C251.285 202.468 251.384 204.393 251.453 205.756C251.453 206.407 251.503 206.916 251.522 207.298C251.547 207.474 251.555 207.653 251.547 207.83Z" fill="#263238"/>
<path d="M172.224 205.403C172.213 205.234 172.213 205.064 172.224 204.895C172.224 204.53 172.224 204.046 172.224 203.43C172.224 202.127 172.224 200.292 172.224 198.05C172.224 193.501 172.087 187.218 171.955 180.277C171.824 173.336 171.749 167.047 171.78 162.498C171.78 160.22 171.818 158.379 171.862 157.117C171.862 156.52 171.893 156.017 171.905 155.659C171.906 155.487 171.92 155.315 171.949 155.145C171.96 155.316 171.96 155.488 171.949 155.659C171.949 156.017 171.949 156.508 171.949 157.123C171.949 158.427 171.949 160.256 171.949 162.504C171.949 167.053 172.087 173.336 172.218 180.277C172.349 187.218 172.424 193.501 172.393 198.056C172.393 200.328 172.355 202.169 172.312 203.436C172.312 204.034 172.312 204.536 172.268 204.901C172.268 205.069 172.253 205.237 172.224 205.403Z" fill="#263238"/>
<path d="M171.96 151.755C171.904 151.755 171.704 150.775 171.199 149.232C170.553 147.221 169.587 145.317 168.334 143.589C167.065 141.872 165.418 140.443 163.509 139.404C162.697 139.004 161.864 138.647 161.012 138.334C161.259 138.352 161.503 138.403 161.736 138.483C162.383 138.668 163.01 138.913 163.608 139.213C165.593 140.212 167.304 141.646 168.602 143.398C169.88 145.152 170.834 147.103 171.424 149.166C171.609 149.784 171.761 150.411 171.879 151.044C171.935 151.277 171.963 151.516 171.96 151.755Z" fill="#263238"/>
<path d="M188.628 202.45L194.371 216.576C194.371 216.576 167.211 230.326 160.944 230.804C154.677 231.283 152.736 229.925 150.126 225.31C148.054 221.646 148.429 212.649 148.959 206.808C149.665 198.851 150.289 190.41 150.289 190.41L171.737 187.887L172.124 205.343L188.603 202.45" fill="#FFBE9D"/>
<path d="M171.952 205.565C171.349 205.678 170.755 205.83 170.173 206.019C168.814 206.584 167.582 207.396 166.546 208.41C165.464 209.387 164.451 210.432 163.513 211.537C162.807 212.398 162.489 213.007 162.445 212.983C162.47 212.822 162.529 212.667 162.62 212.529C162.827 212.139 163.063 211.763 163.325 211.405C164.222 210.248 165.225 209.17 166.322 208.183C167.381 207.129 168.671 206.313 170.098 205.792C170.534 205.648 170.987 205.558 171.446 205.523C171.616 205.506 171.788 205.52 171.952 205.565Z" fill="#995037"/>
<path d="M274.041 181.06L251.232 182.017L254.771 207.304L248.229 208.081L236.8 205.05L230.664 220.928C230.664 220.928 255.551 231.504 263.029 232.251C270.507 232.998 275.645 228.664 277.386 223.451C279.128 218.238 274.041 181.06 274.041 181.06Z" fill="#FFBE9D"/>
<path d="M221.992 175.327H207.748C205.462 175.327 203.609 177.101 203.609 179.29V214.46C203.609 216.649 205.462 218.424 207.748 218.424H221.992C224.278 218.424 226.131 216.649 226.131 214.46V179.29C226.131 177.101 224.278 175.327 221.992 175.327Z" fill="#455A64"/>
<path d="M214.702 182.716C215.408 182.716 215.981 182.167 215.981 181.49C215.981 180.814 215.408 180.265 214.702 180.265C213.995 180.265 213.422 180.814 213.422 181.49C213.422 182.167 213.995 182.716 214.702 182.716Z" fill="white"/>
<path d="M269.642 216.499C269.579 216.499 269.311 215.512 268.481 214.065C267.402 212.18 265.854 210.58 263.973 209.408C262.092 208.235 259.937 207.527 257.7 207.346C255.984 207.203 254.916 207.376 254.91 207.346C255.15 207.267 255.4 207.221 255.653 207.209C256.339 207.134 257.03 207.116 257.719 207.155C260.01 207.28 262.228 207.977 264.151 209.176C266.073 210.376 267.635 212.037 268.68 213.994C268.999 214.578 269.262 215.188 269.467 215.817C269.555 216.036 269.614 216.265 269.642 216.499Z" fill="#995037"/>
<path d="M203.902 185.424C202.612 185.361 201.321 185.361 200.032 185.424L194.551 191.175C194.551 191.175 193.927 196.555 192.984 197.673C192.042 198.791 187.891 202.677 187.891 202.677L193.633 216.803L197.816 216.056C197.816 216.056 200.312 217.557 202.903 216.803C205.493 216.05 209.301 212.553 209.301 212.553L217.091 212.176L220.905 208.733L215.805 202.157L205.387 201.78L210.606 199.652L223.009 198.528C223.009 198.528 225.88 198.277 224.707 195.778C223.533 193.279 215.968 193.65 215.968 193.65L210.088 194.027C210.088 194.027 214.794 192.359 215.543 190.876C216.117 189.746 216.274 188.658 214.919 187.773C214.295 187.349 204.463 187.995 204.463 187.995L203.902 185.424Z" fill="#FFBE9D"/>
<path d="M197.853 210.897C197.853 210.897 197.771 210.897 197.622 210.855C197.4 210.792 197.19 210.697 196.997 210.574C196.328 210.1 195.86 209.41 195.68 208.631C195.461 207.485 195.536 206.306 195.899 205.194C195.98 204.883 196.061 204.566 196.142 204.237C196.199 204.095 196.222 203.942 196.209 203.79C196.197 203.638 196.148 203.49 196.067 203.359C195.839 203.091 195.586 202.843 195.312 202.617C195.04 202.334 194.828 202.003 194.688 201.643C194.397 200.928 194.397 200.134 194.688 199.419C195.019 198.852 195.138 198.194 195.025 197.554C194.801 196.992 194.538 196.444 194.238 195.916C193.968 195.304 193.828 194.646 193.828 193.982C193.828 193.317 193.968 192.66 194.238 192.048C194.329 191.855 194.436 191.669 194.557 191.492C194.644 191.372 194.694 191.313 194.707 191.319C194.719 191.325 194.557 191.588 194.357 192.09C194.084 192.802 193.98 193.564 194.051 194.32C194.101 194.834 194.24 195.337 194.463 195.808C194.779 196.344 195.055 196.902 195.287 197.476C195.384 197.821 195.384 198.184 195.287 198.528C195.19 198.864 195.076 199.196 194.944 199.521C194.679 200.166 194.679 200.884 194.944 201.529C195.073 201.853 195.269 202.15 195.518 202.402C195.805 202.644 196.068 202.91 196.305 203.197C196.42 203.366 196.485 203.563 196.492 203.765C196.494 203.949 196.468 204.132 196.417 204.309C196.33 204.632 196.242 204.955 196.161 205.266C195.793 206.334 195.694 207.471 195.874 208.583C196.044 209.332 196.481 210 197.11 210.473C197.345 210.633 197.594 210.775 197.853 210.897Z" fill="#995037"/>
<path d="M220.156 207.483C219.976 207.565 219.785 207.62 219.588 207.644C219.06 207.736 218.526 207.784 217.99 207.788C216.233 207.744 214.48 207.606 212.74 207.376C211 207.24 209.25 207.29 207.521 207.525C206.186 207.674 205.362 207.8 205.355 207.758C205.531 207.673 205.721 207.618 205.917 207.597C206.286 207.513 206.822 207.411 207.49 207.31C209.229 207.003 211.003 206.921 212.765 207.065C214.819 207.268 216.654 207.555 217.99 207.567C219.325 207.579 220.143 207.447 220.156 207.483Z" fill="#995037"/>
<path d="M210.708 193.835C210.708 193.937 208.567 194.32 206.026 195.145C203.486 195.97 201.538 196.938 201.488 196.86C201.871 196.575 202.291 196.338 202.737 196.155C203.769 195.648 204.837 195.211 205.933 194.846C207.031 194.492 208.153 194.211 209.291 194.003C209.754 193.888 210.23 193.832 210.708 193.835Z" fill="#995037"/>
<path d="M205.159 187.546C204.696 187.935 204.163 188.239 203.586 188.443C203.053 188.738 202.47 188.94 201.863 189.041C202.86 188.354 203.976 187.842 205.159 187.528V187.546Z" fill="#995037"/>
<path d="M226.692 187.086C226.692 187.086 236.592 192.078 236.873 193.435C237.09 194.798 237.198 196.175 237.198 197.554L236.804 205.05L230.668 220.928C230.668 220.928 225.575 221.43 223.359 220.33C221.143 219.231 219.832 216.451 219.832 216.451L217.085 212.176L220.45 208.524L214.863 202.175C214.863 202.175 219.695 199.927 222.978 201.302C225.146 202.284 227.131 203.601 228.852 205.2L227.809 200.674L221.53 196.86L218.658 194.887C217.927 194.399 217.367 193.709 217.053 192.91C216.739 192.111 216.685 191.239 216.898 190.41C217.002 189.87 217.308 189.385 217.76 189.047C219.183 188.174 230.818 194.929 230.818 194.929C230.818 194.929 226.236 190.924 225.862 189.501C225.487 188.078 225.98 186.655 226.692 187.086Z" fill="#FFBE9D"/>
<path d="M237.059 215.955C236.904 215.43 236.809 214.891 236.778 214.346C236.659 213.348 236.553 211.955 236.534 210.425C236.516 208.894 236.584 207.501 236.678 206.497C236.696 205.952 236.776 205.411 236.915 204.883C236.964 205.424 236.964 205.968 236.915 206.509C236.878 207.513 236.847 208.9 236.865 210.419C236.884 211.937 236.953 213.33 237.015 214.329C237.074 214.869 237.088 215.412 237.059 215.955Z" fill="#995037"/>
<path d="M219.865 207.525C219.995 207.843 220.058 208.182 220.052 208.524C220.08 208.896 220.055 209.27 219.977 209.636C219.866 210.094 219.634 210.518 219.303 210.867C218.697 211.475 217.906 211.883 217.043 212.033C216.702 212.134 216.342 212.161 215.988 212.111C216.31 211.981 216.645 211.883 216.987 211.818C217.776 211.62 218.493 211.219 219.059 210.658C219.584 210.063 219.856 209.301 219.821 208.524C219.796 208.19 219.81 207.855 219.865 207.525Z" fill="#995037"/>
<path d="M234.917 202.545C234.822 202.038 234.76 201.524 234.73 201.009C234.59 199.784 234.335 198.574 233.969 197.392C233.737 196.774 233.283 196.255 232.689 195.928C232.194 195.646 231.679 195.398 231.147 195.186C230.776 195.038 230.425 194.849 230.099 194.624C230.051 194.586 230.014 194.537 229.991 194.482C229.968 194.427 229.96 194.367 229.967 194.308C229.999 194.224 230.061 194.224 230.061 194.23C230.061 194.236 230.03 194.266 230.061 194.32C230.068 194.364 230.084 194.406 230.11 194.443C230.136 194.481 230.171 194.512 230.211 194.535C230.55 194.709 230.903 194.859 231.266 194.983C231.823 195.171 232.362 195.405 232.876 195.683C233.539 196.035 234.045 196.607 234.299 197.291C234.678 198.494 234.909 199.736 234.986 200.991C235.044 201.51 235.02 202.033 234.917 202.545Z" fill="#995037"/>
<path d="M216.882 190.41C216.919 190.41 216.851 190.691 216.844 191.193C216.83 191.9 217.009 192.599 217.362 193.22C217.922 194.126 218.718 194.878 219.672 195.402L223.099 197.542L227.868 200.567L227.918 200.603V200.657C228.06 201.756 228.298 202.842 228.629 203.903C228.775 204.3 228.877 204.711 228.935 205.128C228.758 204.739 228.605 204.34 228.48 203.933C228.088 202.879 227.81 201.789 227.649 200.68L227.712 200.776L222.912 197.787L219.497 195.623C218.513 195.067 217.703 194.268 217.15 193.309C216.801 192.65 216.65 191.912 216.713 191.175C216.727 190.974 216.758 190.774 216.807 190.577C216.851 190.476 216.869 190.404 216.882 190.41Z" fill="#995037"/>
<path d="M231.598 209.929C231.702 209.795 231.794 209.653 231.873 209.504C231.952 209.296 231.983 209.074 231.965 208.853C231.947 208.633 231.879 208.418 231.767 208.225C231.387 207.649 230.913 207.137 230.362 206.706C229.738 206.174 229.114 205.606 228.371 205.032C226.923 203.879 225.531 202.934 224.507 202.271C223.938 201.939 223.388 201.578 222.859 201.189C223.483 201.425 224.077 201.725 224.632 202.085C226.014 202.895 227.333 203.8 228.577 204.793C229.307 205.391 229.975 205.953 230.568 206.503C231.133 206.963 231.611 207.513 231.979 208.129C232.094 208.351 232.153 208.596 232.153 208.844C232.153 209.091 232.094 209.336 231.979 209.558C231.804 209.875 231.598 209.941 231.598 209.929Z" fill="#995037"/>
<path d="M218.733 207.782C218.889 207.707 219.055 207.653 219.226 207.621C219.673 207.512 220.104 207.347 220.506 207.131C220.793 206.979 221.032 206.757 221.199 206.487C221.366 206.216 221.454 205.908 221.455 205.594C221.454 205.211 221.414 204.829 221.336 204.453C221.299 204.051 221.174 203.662 220.968 203.311C220.727 203.002 220.376 202.789 219.982 202.713C219.588 202.624 219.19 202.554 218.789 202.504C218.015 202.39 217.31 202.318 216.723 202.277C216.08 202.258 215.439 202.208 214.801 202.127C215.44 202.029 216.09 202.005 216.736 202.055C217.36 202.055 218.04 202.121 218.827 202.217C219.247 202.261 219.664 202.329 220.075 202.42C220.551 202.519 220.971 202.783 221.255 203.161C221.482 203.552 221.622 203.984 221.667 204.429C221.74 204.823 221.773 205.224 221.767 205.624C221.758 206.009 221.632 206.383 221.405 206.7C221.204 206.97 220.939 207.19 220.631 207.34C220.203 207.546 219.744 207.688 219.27 207.759C219.094 207.797 218.912 207.805 218.733 207.782Z" fill="#995037"/>
<path d="M224.984 213.115C223.898 212.453 222.915 211.648 222.063 210.724C221.425 210.101 220.852 209.42 220.352 208.691C220.124 208.4 219.957 208.069 219.859 207.717C219.909 207.717 220.128 208.045 220.54 208.566C221.089 209.245 221.677 209.896 222.3 210.514C223.754 211.967 225.047 213.043 224.984 213.115Z" fill="#995037"/>
<path d="M106.036 91.6087C100.724 87.0234 93.9515 90.9631 90.3311 93.6054C86.7107 96.2478 85.0628 100.038 84.1639 103.768C83.265 107.499 82.9779 111.337 81.4985 114.959C79.707 119.347 76.1927 123.329 75.3875 127.902C74.5323 132.727 76.792 137.82 74.9506 142.471C73.8832 145.167 71.5361 147.445 69.5823 149.836C67.6285 152.227 66.0243 154.995 66.6485 157.793C67.5536 161.9 72.8907 164.71 78.1652 166.276C82.4661 167.561 87.1102 168.362 91.6669 168.004C96.2237 167.645 100.687 166.031 103.202 163.221C105.362 160.83 105.936 157.841 106.03 154.929C106.336 145.544 102.285 136.331 100.506 126.999C98.3585 115.611 101.361 102.423 106.055 91.5908" fill="#263238"/>
<path d="M74.6297 165.349C74.5864 165.293 74.5487 165.233 74.5173 165.17C74.4487 165.05 74.3301 164.877 74.2115 164.632C73.8744 163.915 73.6635 163.149 73.5872 162.366C73.4915 161.125 73.6074 159.877 73.9306 158.672C74.3539 157.082 74.907 155.527 75.5847 154.021C79.3422 145.271 82.1736 136.183 84.0365 126.892C85.0584 121.779 85.7836 116.616 86.2088 111.426C86.4023 109.035 86.5708 106.745 86.9391 104.629C87.2475 102.658 87.8312 100.736 88.6744 98.914C89.4069 97.4211 90.3966 96.057 91.602 94.8788C92.509 93.9941 93.5638 93.2606 94.723 92.7087C95.4635 92.3728 96.246 92.1297 97.0513 91.9854C97.326 91.9435 97.5382 91.9256 97.6756 91.9076C97.7482 91.901 97.8214 91.901 97.894 91.9076L97.6818 91.9555L97.0576 92.0571C96.2664 92.2249 95.4992 92.4839 94.773 92.8283C93.6335 93.3928 92.5965 94.1296 91.7019 95.0103C90.5256 96.1834 89.5635 97.5374 88.8555 99.0157C88.0362 100.825 87.4715 102.731 87.1763 104.683C86.8205 106.787 86.6645 109.065 86.4772 111.462C86.0712 116.665 85.3522 121.84 84.3237 126.964C82.4616 136.274 79.5935 145.374 75.7657 154.116C75.0842 155.611 74.5188 157.151 74.0741 158.726C73.7438 159.912 73.6111 161.14 73.6809 162.366C73.7848 163.412 74.1075 164.426 74.6297 165.349Z" fill="#455A64"/>
<path d="M74.782 152.263L97.1912 151.355L127.428 161.117L146.847 168.745L122.94 249.588L126.585 260.887H58.0781L61.1617 199.568L74.782 152.263Z" fill="#7650A3"/>
<g opacity="0.3">
<path d="M121.192 250.275C119.082 236.621 116.974 222.967 114.869 209.313C114.482 206.802 114.001 204.106 112.103 202.336C110.306 200.65 107.64 200.202 105.137 199.903C99.5194 199.246 93.527 199.054 88.5707 201.655C84.376 203.855 81.5047 207.77 78.883 211.608C70.9555 223.224 65.9992 228.311 59.6198 240.77L58.5898 250.616C65.0504 248.715 71.2176 242.653 74.8193 237.195C78.421 231.737 81.0053 225.675 84.3573 220.038C86.6606 216.176 89.5819 212.35 93.8578 210.622C96.2735 209.642 99.432 209.57 101.149 211.459C101.842 212.33 102.328 213.336 102.572 214.406C104.494 220.934 105.069 227.761 106.723 234.355C108.377 240.949 111.361 247.579 116.941 251.758C117.534 252.263 118.248 252.62 119.02 252.798C119.407 252.877 119.81 252.843 120.177 252.699C120.543 252.555 120.856 252.308 121.073 251.991C121.296 251.444 121.337 250.845 121.192 250.275Z" fill="black"/>
</g>
<path d="M46.8594 183.003C46.8594 182.405 56.7406 152.263 74.7866 152.263L69.2498 188.353L46.8594 183.003Z" fill="#7650A3"/>
<path d="M146.848 168.745C146.848 168.745 152.466 173.348 153.322 177.204C154.177 181.06 155.163 199.969 155.163 199.969L133.234 198.516L146.848 168.745Z" fill="#7650A3"/>
<path d="M71.2188 168.028C71.2341 168.161 71.2341 168.295 71.2188 168.428L71.069 169.558C70.9379 170.538 70.7132 171.949 70.4136 173.707C69.7894 177.204 68.8468 182.011 67.7108 187.301C66.5747 192.592 65.576 197.392 64.9205 200.872C64.6084 202.587 64.3463 203.986 64.1652 205.003L63.953 206.127C63.936 206.259 63.9046 206.389 63.8594 206.515C63.8438 206.382 63.8438 206.248 63.8594 206.115C63.8968 205.822 63.9468 205.451 64.0092 204.985C64.1403 203.998 64.365 202.593 64.6334 200.836C65.2576 197.339 66.2002 192.532 67.33 187.236C68.4598 181.939 69.471 177.15 70.1202 173.665C70.4386 171.955 70.6945 170.55 70.8817 169.54C70.9691 169.08 71.0378 168.703 71.094 168.416C71.1201 168.283 71.162 168.152 71.2188 168.028Z" fill="#263238"/>
<path d="M138.69 181.987C138.695 182.277 138.67 182.568 138.615 182.853C138.547 183.415 138.428 184.216 138.272 185.209C137.954 187.194 137.435 189.926 136.83 192.933C136.225 195.94 135.681 198.606 135.269 200.633C135.082 201.577 134.932 202.36 134.808 202.97C134.768 203.259 134.699 203.543 134.602 203.819C134.602 203.526 134.629 203.234 134.683 202.946C134.758 202.39 134.882 201.589 135.045 200.597C135.376 198.612 135.9 195.88 136.512 192.873C137.123 189.866 137.641 187.2 138.041 185.173C138.222 184.228 138.378 183.445 138.49 182.836C138.534 182.548 138.601 182.264 138.69 181.987Z" fill="#263238"/>
<path d="M147.373 169.606C147.373 169.606 147.317 169.666 147.199 169.761L146.649 170.186C145.915 170.696 145.126 171.131 144.296 171.483C142.976 172.028 141.572 172.366 140.139 172.481C138.233 172.638 136.315 172.389 134.521 171.752C132.517 171.041 130.676 169.648 128.591 168.41C127.529 167.753 126.363 167.262 125.139 166.958C123.833 166.679 122.483 166.642 121.163 166.85C118.429 167.233 115.745 168.386 112.842 169.241C109.828 170.155 106.624 170.341 103.517 169.784C100.409 169.227 97.4928 167.944 95.027 166.049C93.8993 165.114 92.83 164.116 91.8248 163.06C90.8749 162.064 89.7591 161.225 88.5228 160.579C87.3176 160.024 86.0022 159.722 84.6651 159.694C83.3985 159.664 82.1322 159.766 80.8887 159.999C78.473 160.447 76.282 161.153 74.2096 161.553C72.3536 161.982 70.4274 162.055 68.5418 161.769C67.12 161.517 65.7833 160.938 64.6467 160.083C63.9282 159.54 63.3494 158.847 62.9551 158.056C62.8527 157.854 62.7671 157.644 62.6991 157.428C62.6554 157.285 62.6367 157.207 62.6367 157.207C62.6751 157.275 62.7084 157.345 62.7366 157.416C62.8114 157.622 62.9033 157.822 63.0112 158.014C63.4252 158.778 64.0091 159.445 64.7216 159.969C65.8541 160.794 67.1772 161.345 68.5792 161.577C70.4409 161.845 72.3395 161.758 74.1659 161.32C76.2133 160.908 78.3981 160.19 80.8387 159.73C82.1014 159.482 83.3891 159.372 84.6776 159.401C86.0571 159.427 87.4148 159.735 88.6601 160.304C89.9303 160.961 91.0761 161.818 92.0496 162.839C93.0479 163.881 94.1088 164.867 95.2268 165.792C97.653 167.654 100.521 168.915 103.577 169.462C106.634 170.009 109.783 169.827 112.748 168.93C115.626 168.099 118.329 166.94 121.119 166.539C122.477 166.326 123.866 166.367 125.208 166.659C126.459 166.978 127.649 167.484 128.734 168.159C130.832 169.421 132.642 170.808 134.602 171.519C136.364 172.154 138.249 172.413 140.126 172.278C141.544 172.177 142.937 171.863 144.252 171.346C145.08 171.006 145.873 170.592 146.618 170.108L147.18 169.708L147.373 169.606Z" fill="#FAFAFA"/>
<path d="M67.8099 180.94C67.8099 180.94 67.7413 180.976 67.6039 181.006C67.3999 181.059 67.1907 181.091 66.9797 181.102C66.2228 181.148 65.4646 181.036 64.7575 180.773C63.7112 180.389 62.7514 179.817 61.9298 179.087C60.9873 178.286 60.0884 177.294 59.0959 176.313C58.191 175.377 57.1221 174.6 55.9374 174.018C54.9719 173.558 53.8794 173.404 52.8164 173.575C52.0963 173.687 51.4223 173.987 50.8688 174.442C50.4818 174.771 50.332 175.04 50.3008 174.998C50.3211 174.932 50.3528 174.869 50.3944 174.813C50.503 174.645 50.633 174.49 50.7814 174.352C51.3273 173.839 52.0206 173.494 52.7727 173.36C53.8889 173.146 55.0476 173.284 56.0747 173.755C57.3023 174.34 58.4086 175.134 59.3394 176.098C60.3443 177.084 61.212 178.083 62.1421 178.872C62.9291 179.592 63.8473 180.167 64.8511 180.57C65.7897 180.928 66.8068 181.055 67.8099 180.94Z" fill="#FAFAFA"/>
<path d="M132.692 197.404C131.897 197.878 131.044 198.254 130.151 198.522C127.709 199.288 125.099 199.422 122.586 198.911C120.848 198.573 119.194 197.922 117.711 196.992C116.06 195.87 114.548 194.573 113.204 193.124C111.739 191.535 110.117 190.085 108.36 188.796C106.419 187.49 104.096 186.805 101.725 186.841C99.3493 186.942 96.9984 187.344 94.7335 188.036C92.5113 188.634 90.364 189.292 88.2854 189.698C82.0499 190.915 75.5844 190.449 69.6089 188.353C68.7663 188.036 68.1171 187.791 67.6926 187.588L67.2057 187.373C67.0934 187.319 67.0372 187.295 67.0434 187.289C67.1041 187.299 67.163 187.317 67.2182 187.343L67.7176 187.534C68.1545 187.714 68.8037 187.941 69.6526 188.24C72.0467 189.032 74.5222 189.577 77.0371 189.866C80.7662 190.303 84.545 190.152 88.2229 189.417C90.2953 189.005 92.4176 188.347 94.6461 187.744C96.9392 187.044 99.3199 186.642 101.725 186.548C102.953 186.536 104.176 186.705 105.351 187.05C106.491 187.391 107.567 187.901 108.541 188.563C110.315 189.863 111.949 191.331 113.416 192.945C114.743 194.382 116.234 195.674 117.86 196.794C119.312 197.716 120.932 198.367 122.636 198.713C125.117 199.237 127.697 199.138 130.126 198.426C130.783 198.231 131.426 197.994 132.049 197.715L132.529 197.488C132.579 197.453 132.634 197.425 132.692 197.404Z" fill="#FAFAFA"/>
<path d="M154.596 186.04C154.596 186.04 154.596 186.105 154.515 186.213C154.421 186.371 154.317 186.523 154.203 186.667C153.773 187.199 153.252 187.656 152.661 188.018C151.777 188.565 150.768 188.897 149.721 188.987C148.443 189.032 147.169 188.828 145.975 188.389C144.816 187.968 143.598 187.716 142.361 187.642C141.351 187.627 140.349 187.81 139.415 188.18C138.559 188.541 137.76 189.016 137.043 189.591C137.043 189.591 137.043 189.531 137.162 189.435C137.287 189.299 137.423 189.171 137.567 189.053C138.093 188.61 138.687 188.247 139.328 187.977C140.283 187.573 141.317 187.369 142.361 187.379C143.643 187.436 144.906 187.686 146.107 188.12C147.263 188.543 148.495 188.746 149.733 188.718C150.736 188.647 151.707 188.35 152.567 187.851C153.346 187.362 154.032 186.749 154.596 186.04Z" fill="#FAFAFA"/>
<path d="M130.693 215.351C130.629 215.36 130.564 215.36 130.5 215.351L129.925 215.315C129.19 215.285 128.453 215.311 127.722 215.393C126.568 215.538 125.431 215.786 124.326 216.134C123.022 216.522 121.586 217.084 120 217.718C118.283 218.454 116.514 219.075 114.707 219.577C112.619 220.19 110.407 220.313 108.259 219.936C107.104 219.684 106.002 219.245 105.001 218.639C103.971 218.041 103.009 217.324 102.004 216.642C101.01 215.919 99.926 215.317 98.7772 214.849C97.5838 214.413 96.3066 214.227 95.0319 214.305C92.4289 214.436 90.0382 215.339 87.7598 216.289C85.6147 217.29 83.3738 218.091 81.0683 218.681C78.9346 219.136 76.7171 219.087 74.6077 218.537C72.7839 218.061 71.0442 217.327 69.4455 216.361C68.1229 215.57 66.8703 214.676 65.7002 213.689C64.664 212.828 63.8276 212.039 63.1409 211.387C62.4543 210.736 61.9425 210.222 61.5929 209.875L61.1996 209.468C61.1123 209.379 61.0686 209.331 61.0748 209.325L61.2246 209.444L61.6366 209.827L63.2283 211.304C65.1475 213.135 67.2627 214.768 69.5391 216.176C71.1268 217.115 72.849 217.828 74.6514 218.292C76.7191 218.817 78.8888 218.854 80.9747 218.4C83.2598 217.803 85.4814 217.003 87.61 216.008C89.8634 215.052 92.3166 214.125 94.9882 213.994C96.3093 213.916 97.6326 214.108 98.8708 214.556C100.041 215.019 101.147 215.622 102.16 216.349C103.172 217.037 104.133 217.748 105.138 218.334C106.107 218.929 107.175 219.359 108.296 219.607C110.399 219.983 112.566 219.87 114.613 219.278C116.412 218.795 118.174 218.196 119.888 217.485C121.48 216.887 122.928 216.289 124.257 215.937C125.378 215.599 126.53 215.366 127.697 215.243C128.695 215.13 129.706 215.166 130.693 215.351Z" fill="#FAFAFA"/>
<path d="M123.498 244.769C122.922 244.039 122.237 243.394 121.463 242.856C120.553 242.252 119.536 241.813 118.461 241.559C117.029 241.207 115.531 241.189 114.091 241.505C112.348 241.929 110.777 242.841 109.578 244.124C108.891 244.775 108.211 245.493 107.449 246.18C106.682 246.926 105.782 247.533 104.79 247.974C103.722 248.403 102.546 248.524 101.407 248.32C100.236 248.101 99.1189 247.669 98.1175 247.047C96.0327 245.851 94.4097 243.992 92.587 242.348C91.7043 241.516 90.7191 240.789 89.6532 240.184C88.6158 239.615 87.4695 239.251 86.2825 239.114C84.0129 238.924 81.7281 239.235 79.6034 240.023C77.556 240.722 75.6959 241.631 73.9168 242.414C72.2798 243.169 70.5697 243.77 68.8108 244.207C66.2129 244.869 63.4533 244.616 61.0331 243.496C60.3942 243.185 59.8089 242.782 59.2978 242.3C59.1659 242.175 59.0409 242.043 58.9233 241.906C58.881 241.86 58.8414 241.812 58.8047 241.762C59.4628 242.428 60.2356 242.98 61.0893 243.394C63.4825 244.418 66.1742 244.608 68.6984 243.932C70.4389 243.494 72.1303 242.893 73.7483 242.139C75.5148 241.368 77.375 240.447 79.4474 239.748C81.6163 238.938 83.9507 238.617 86.27 238.809C87.4983 238.948 88.6848 239.322 89.7593 239.909C90.8465 240.527 91.8524 241.268 92.7556 242.115C94.6282 243.783 96.2012 245.606 98.2299 246.784C99.1978 247.385 100.276 247.805 101.407 248.021C102.488 248.22 103.607 248.108 104.622 247.699C105.579 247.284 106.452 246.709 107.2 246.001C107.955 245.325 108.635 244.614 109.335 243.956C110.575 242.65 112.194 241.727 113.985 241.308C115.463 240.995 116.999 241.03 118.461 241.41C119.561 241.684 120.597 242.157 121.513 242.802C121.698 242.918 121.871 243.05 122.031 243.197C122.181 243.329 122.337 243.448 122.462 243.568C122.699 243.831 122.917 244.034 123.086 244.219L123.404 244.662C123.438 244.695 123.47 244.731 123.498 244.769Z" fill="#FAFAFA"/>
<g opacity="0.3">
<path d="M139.937 164.823C139.297 164.045 138.467 163.429 137.521 163.03C129.325 158.791 119.419 153.668 110.231 152.371C107.802 159.036 106.311 166.718 102.815 172.894C102.347 173.725 101.841 174.639 102.041 175.566C102.272 176.63 103.352 177.3 104.375 177.772C109.424 180.064 115.206 180.388 120.499 178.675L120.574 181.538C122.85 182.176 125.247 182.308 127.585 181.926C129.922 181.543 132.138 180.655 134.063 179.33C135.989 178.004 137.574 176.276 138.697 174.276C139.821 172.276 140.454 170.058 140.549 167.788C140.667 166.763 140.454 165.728 139.937 164.823Z" fill="black"/>
</g>
<path d="M127.326 98.5314C128.456 98.7035 129.478 99.2744 130.191 100.132C130.904 100.989 131.256 102.071 131.178 103.164L125.447 162.109C124.979 169.086 114.13 172.505 106.34 171.967C98.4751 171.429 98.4065 167.717 98.6499 161.075C99.0432 149.979 99.2741 145.813 99.2741 145.878C99.2741 145.944 89.4116 143.81 88.0071 131.274C87.308 125.039 88.1757 114.918 89.1619 106.656C90.0358 99.2189 95.6787 90.3114 103.4 91.507L127.326 98.5314Z" fill="#FFBE9D"/>
<path d="M94.3815 116.018C94.3572 116.433 94.5025 116.841 94.7867 117.156C95.071 117.47 95.4719 117.667 95.9046 117.703C96.1157 117.729 96.33 117.714 96.5349 117.66C96.7399 117.605 96.9314 117.512 97.0983 117.386C97.2652 117.259 97.404 117.102 97.5067 116.924C97.6093 116.745 97.6737 116.549 97.6961 116.346C97.7222 115.932 97.5783 115.523 97.295 115.209C97.0118 114.894 96.6115 114.697 96.1793 114.661C95.9678 114.634 95.7528 114.648 95.5471 114.702C95.3414 114.756 95.1491 114.849 94.9815 114.976C94.814 115.102 94.6746 115.26 94.5715 115.439C94.4685 115.618 94.4039 115.814 94.3815 116.018Z" fill="#263238"/>
<path d="M91.1388 112.484C91.3323 112.706 92.6432 111.887 94.4347 111.964C96.2262 112.042 97.4933 112.975 97.6993 112.777C97.7992 112.688 97.6119 112.299 97.0751 111.875C96.3289 111.321 95.4214 111.004 94.4784 110.966C93.5457 110.917 92.6211 111.154 91.8379 111.642C91.2512 112.018 91.0452 112.389 91.1388 112.484Z" fill="#263238"/>
<path d="M111.409 117.524C111.385 117.939 111.53 118.348 111.814 118.662C112.098 118.977 112.499 119.173 112.932 119.21C113.143 119.236 113.357 119.221 113.562 119.166C113.767 119.112 113.959 119.019 114.126 118.892C114.293 118.766 114.431 118.609 114.534 118.43C114.637 118.252 114.701 118.055 114.723 117.853C114.75 117.438 114.606 117.03 114.322 116.715C114.039 116.4 113.639 116.204 113.207 116.167C112.995 116.14 112.78 116.155 112.574 116.209C112.369 116.263 112.176 116.356 112.009 116.482C111.841 116.609 111.702 116.766 111.599 116.945C111.496 117.124 111.431 117.321 111.409 117.524Z" fill="#263238"/>
<path d="M108.897 113.752C109.09 113.967 110.401 113.154 112.192 113.226C113.984 113.298 115.251 114.242 115.457 114.039C115.557 113.949 115.37 113.567 114.833 113.142C114.087 112.587 113.18 112.267 112.236 112.227C111.303 112.181 110.378 112.419 109.596 112.909C109.009 113.286 108.803 113.626 108.897 113.752Z" fill="#263238"/>
<path d="M101.604 125.63C101.604 125.535 100.518 125.296 98.72 124.985C98.2706 124.919 97.8399 124.811 97.7775 124.507C97.7644 124.052 97.8949 123.604 98.152 123.221C98.6389 122.181 99.1487 121.091 99.6813 119.951C101.816 115.294 103.383 111.45 103.183 111.373C102.983 111.295 101.105 115.001 98.9697 119.664L97.4966 122.958C97.1792 123.471 97.0619 124.074 97.1657 124.662C97.2214 124.818 97.3124 124.959 97.4322 125.077C97.5521 125.195 97.6977 125.286 97.8586 125.344C98.1101 125.418 98.3699 125.464 98.6326 125.481C100.443 125.666 101.604 125.726 101.604 125.63Z" fill="#263238"/>
<path d="M99.2639 145.908C105.373 146.298 111.475 145.056 116.892 142.321C116.892 142.321 112.035 150.888 99.1016 149.089L99.2639 145.908Z" fill="#EB996E"/>
<path d="M102.124 129.803C102.486 129.409 102.947 129.11 103.464 128.933C103.98 128.756 104.535 128.708 105.076 128.793C105.47 128.847 105.848 128.977 106.188 129.174C106.528 129.371 106.823 129.632 107.055 129.941C107.279 130.238 107.403 130.594 107.41 130.96C107.417 131.327 107.306 131.687 107.092 131.991C106.788 132.286 106.398 132.487 105.973 132.568C105.548 132.649 105.107 132.606 104.708 132.445C103.879 132.118 103.126 131.636 102.492 131.029C102.297 130.881 102.132 130.701 102.005 130.497C101.947 130.398 101.92 130.285 101.927 130.172C101.933 130.058 101.974 129.949 102.043 129.857" fill="#EB996E"/>
<path d="M106.795 127.077C106.507 127.041 106.401 128.906 104.666 130.15C102.931 131.393 100.871 131.083 100.846 131.346C100.808 131.465 101.289 131.734 102.163 131.8C103.301 131.867 104.427 131.549 105.346 130.903C106.231 130.283 106.827 129.356 107.007 128.321C107.119 127.543 106.932 127.071 106.795 127.077Z" fill="#263238"/>
<path d="M108.153 106.937C108.359 107.391 110.132 107.074 112.248 107.2C114.364 107.325 116.1 107.797 116.349 107.343C116.462 107.14 116.143 106.715 115.432 106.303C114.485 105.8 113.43 105.51 112.348 105.456C111.266 105.402 110.186 105.585 109.19 105.992C108.428 106.333 108.066 106.721 108.153 106.937Z" fill="#263238"/>
<path d="M91.3735 110.296C91.642 110.727 92.9715 110.494 94.4946 110.685C96.0177 110.876 97.2848 111.325 97.6157 110.96C97.778 110.787 97.6157 110.362 97.1163 109.926C96.4185 109.374 95.5641 109.034 94.6631 108.951C93.7674 108.841 92.8578 108.993 92.0539 109.388C91.4921 109.71 91.2549 110.087 91.3735 110.296Z" fill="#263238"/>
<path d="M125.665 122.026C125.933 119.383 129.035 117.757 131.364 119.198C132.612 119.987 133.573 121.494 133.305 124.297C132.606 131.776 124.916 129.558 124.922 129.343C124.928 129.128 125.328 125.116 125.665 122.026Z" fill="#FFBE9D"/>
<path d="M127.563 126.718C127.6 126.718 127.694 126.82 127.912 126.94C128.221 127.102 128.585 127.141 128.923 127.047C129.779 126.826 130.59 125.636 130.752 124.291C130.835 123.651 130.767 123.002 130.553 122.39C130.5 122.151 130.388 121.927 130.226 121.738C130.064 121.549 129.857 121.399 129.623 121.302C129.469 121.249 129.302 121.249 129.149 121.303C128.996 121.356 128.867 121.46 128.786 121.595C128.661 121.792 128.699 121.948 128.655 121.954C128.611 121.96 128.499 121.816 128.593 121.511C128.652 121.33 128.776 121.173 128.942 121.069C129.172 120.934 129.447 120.889 129.71 120.944C130.025 121.032 130.311 121.197 130.541 121.422C130.77 121.647 130.936 121.925 131.021 122.229C131.296 122.903 131.39 123.633 131.295 124.351C131.108 125.852 130.166 127.191 129.011 127.406C128.792 127.45 128.566 127.446 128.349 127.393C128.133 127.34 127.932 127.24 127.762 127.101C127.563 126.898 127.538 126.724 127.563 126.718Z" fill="#EB996E"/>
<path d="M142.035 153.602C141.411 148.461 143.564 145.155 143.521 139.978C143.471 133.635 141.973 126.551 140.687 120.322C139.438 114.194 137.46 108.856 135.169 102.985C132.878 97.1145 126.929 91.2738 120.874 88.6375C115.531 86.3179 108.552 86.9576 104.439 90.694C104.137 90.7119 103.835 90.7119 103.534 90.694C94.3765 89.9467 93.1094 96.3912 93.1094 96.3912C98.7959 91.3037 102.679 95.7933 102.679 95.7933C106.137 92.3619 111.892 95.327 113.877 98.5792C116.673 103.164 116.936 105.896 117.666 108.294C119.501 114.302 125.156 115.497 124.794 121.751C124.376 129.761 119.613 135.937 118.964 143.936C118.82 146.283 118.48 148.616 117.947 150.912C117.216 153.363 105.781 171.836 113.072 173.39C113.341 173.4 113.61 173.386 113.877 173.348L121.992 172.924L128.533 168.906L128.327 173.013L139.058 173.707C141.667 171.591 142.41 168.039 142.141 164.811C141.873 161.583 142.441 156.818 142.035 153.602Z" fill="#263238"/>
<path d="M102.336 95.1537C102.363 95.0623 102.401 94.9741 102.448 94.8907C102.536 94.7233 102.661 94.4782 102.842 94.1733C103.331 93.2872 103.963 92.4802 104.714 91.782C105.247 91.3011 105.887 90.9433 106.587 90.7359C107.406 90.5106 108.276 90.5294 109.084 90.7897C110.806 91.3337 112.248 92.6967 113.453 94.2151C115.516 96.8411 117.272 99.6758 118.69 102.668C119.252 103.81 119.683 104.737 119.976 105.382C120.101 105.681 120.213 105.926 120.301 106.13C120.388 106.333 120.407 106.393 120.394 106.399C120.332 106.324 120.282 106.242 120.245 106.154L119.858 105.436L118.484 102.77C117.013 99.8205 115.242 97.0172 113.197 94.4005C111.992 92.9 110.594 91.5788 108.978 91.0587C108.224 90.8045 107.407 90.7774 106.637 90.981C105.965 91.167 105.347 91.4961 104.827 91.9434C104.067 92.6054 103.413 93.3708 102.885 94.2151C102.719 94.5369 102.536 94.8502 102.336 95.1537Z" fill="#455A64"/>
<path d="M114.302 99.2786C114.253 99.2786 113.878 98.4775 113.11 97.24C112.656 96.5213 112.157 95.8286 111.618 95.1656C110.971 94.3503 110.206 93.6276 109.346 93.0194C108.92 92.7025 108.425 92.48 107.898 92.3678C107.409 92.3042 106.912 92.3878 106.475 92.6069C105.714 93.0103 105.027 93.5292 104.44 94.1433C103.907 94.7367 103.318 95.2811 102.68 95.7694C102.8 95.5918 102.94 95.4274 103.098 95.2792C103.373 94.9743 103.766 94.5259 104.278 93.9879C104.863 93.3321 105.562 92.778 106.344 92.3499C106.836 92.0944 107.4 91.996 107.954 92.0689C108.528 92.1852 109.067 92.422 109.534 92.7624C110.417 93.3903 111.2 94.1397 111.856 94.9862C112.391 95.6692 112.877 96.3862 113.31 97.1324C113.598 97.6353 113.858 98.1521 114.09 98.6807C114.19 98.8696 114.261 99.0708 114.302 99.2786Z" fill="#455A64"/>
<path d="M126.616 168.799C126.638 168.724 126.671 168.654 126.716 168.59C126.791 168.44 126.897 168.243 127.028 167.992C127.159 167.741 127.353 167.394 127.552 167.029C127.752 166.665 127.964 166.192 128.214 165.696C129.577 162.842 130.644 159.867 131.397 156.813C132.503 152.28 133.058 147.64 133.052 142.985C133.018 137.284 132.391 131.601 131.179 126.019C129.931 120.041 128.283 114.505 126.697 109.465C125.112 104.426 123.757 99.8526 121.753 96.3673C120.265 93.5627 118.025 91.1879 115.262 89.4864C114.503 89.0423 113.7 88.6718 112.865 88.3805C112.584 88.2729 112.353 88.219 112.24 88.1712C112.162 88.1513 112.087 88.1232 112.016 88.0875L112.247 88.1354C112.396 88.1772 112.627 88.225 112.914 88.3207C113.768 88.5903 114.588 88.947 115.361 89.3848C118.161 91.0785 120.431 93.4639 121.934 96.2896C123.982 99.7988 125.336 104.402 126.965 109.412C128.595 114.421 130.23 120.023 131.479 125.989C132.703 131.589 133.331 137.294 133.351 143.015C133.346 147.689 132.766 152.346 131.622 156.89C130.844 159.952 129.739 162.928 128.326 165.774L127.64 167.101L127.09 168.051C126.941 168.291 126.828 168.482 126.741 168.649C126.703 168.702 126.662 168.752 126.616 168.799Z" fill="#455A64"/>
<path d="M128.871 172.033L129.021 171.848C129.129 171.716 129.279 171.543 129.471 171.327L130.207 170.485L131.131 169.289C133.044 166.681 134.538 163.814 135.563 160.782C137.089 156.283 137.848 151.577 137.81 146.847C137.693 141.061 136.855 135.309 135.313 129.713C133.796 123.735 131.949 118.128 130.438 112.975C128.928 107.821 127.704 103.164 126.1 99.4281C125.398 97.7438 124.563 96.113 123.603 94.5499C122.869 93.3752 122.034 92.2614 121.106 91.2201C120.526 90.559 119.9 89.9359 119.234 89.3549L118.715 88.8946C118.653 88.847 118.597 88.7929 118.547 88.7332C118.614 88.7727 118.677 88.8188 118.734 88.8706L119.277 89.3071C119.969 89.87 120.615 90.4815 121.212 91.1364C122.157 92.1736 123.009 93.2855 123.759 94.4602C124.736 96.0232 125.585 97.6561 126.3 99.3444C127.935 103.087 129.202 107.762 130.713 112.897C132.223 118.032 134.096 123.658 135.619 129.636C137.142 135.614 138.116 141.479 138.06 146.841C138.102 151.6 137.33 156.334 135.775 160.854C134.727 163.897 133.194 166.766 131.231 169.361C130.875 169.809 130.557 170.204 130.282 170.556L129.514 171.381L129.04 171.883L128.871 172.033Z" fill="#455A64"/>
<path d="M123.207 152.998C122.808 152.395 122.517 151.732 122.345 151.038C121.875 149.135 121.908 147.15 122.439 145.263C122.789 143.963 123.267 142.697 123.868 141.485C124.493 140.169 125.254 138.812 126.034 137.378C126.868 135.894 127.585 134.353 128.182 132.768C128.824 131.075 129.112 129.278 129.031 127.478C128.883 125.675 128.463 123.903 127.782 122.217C127.158 120.573 126.415 119.031 125.71 117.56C124.293 114.631 123.013 111.988 121.964 109.758L119.468 104.492L118.8 103.051L118.631 102.674C118.594 102.591 118.581 102.543 118.587 102.543C118.619 102.579 118.644 102.619 118.662 102.662C118.719 102.758 118.781 102.878 118.856 103.027L119.586 104.438C120.21 105.699 121.103 107.481 122.195 109.669C123.288 111.857 124.592 114.517 126.034 117.44C126.746 118.905 127.495 120.429 128.132 122.115C128.818 123.829 129.239 125.629 129.38 127.46C129.465 129.301 129.168 131.14 128.506 132.87C127.901 134.467 127.171 136.018 126.321 137.509C125.535 138.944 124.767 140.289 124.137 141.592C123.534 142.788 123.047 144.035 122.682 145.317C122.139 147.171 122.075 149.124 122.495 151.008C122.623 151.516 122.792 152.013 123.001 152.496C123.082 152.659 123.151 152.826 123.207 152.998Z" fill="#455A64"/>
<path d="M49.9891 183.756C49.9891 183.756 44.109 207.185 43.2975 213.181C42.2239 221.102 39.8332 233.662 41.9992 238.636C44.1652 243.61 51.275 246.599 55.607 245.565C59.939 244.53 86.1372 208.709 86.1372 207.854L77.6916 198.732L63.6156 207.854L67.311 187.899L49.9891 183.756Z" fill="#FFBE9D"/>
<path d="M108.96 160.973H91.3699C90.1495 160.973 89.1602 161.921 89.1602 163.09V199.024C89.1602 200.193 90.1495 201.141 91.3699 201.141H108.96C110.181 201.141 111.17 200.193 111.17 199.024V163.09C111.17 161.921 110.181 160.973 108.96 160.973Z" fill="#455A64"/>
<path d="M103.473 184.169C101.85 183.905 98.6727 184.432 98.6727 184.432L87.4244 185.962L90.8014 181.963C90.8014 181.963 100.015 180.384 101.944 179.858C102.09 179.83 102.23 179.775 102.355 179.695C102.479 179.615 102.586 179.513 102.669 179.393C102.752 179.274 102.809 179.14 102.838 178.999C102.867 178.858 102.866 178.714 102.836 178.573C102.767 178.115 102.524 177.697 102.153 177.4C101.782 177.103 101.309 176.948 100.826 176.965L88.1922 177.222L79.5281 184.467V195.132L77.0312 199.18L85.6828 208.081C85.6828 208.081 91.6316 205.002 92.1809 203.819C92.5097 203.118 92.6513 202.349 92.5928 201.583L99.9585 199.192C100.368 199.062 100.72 198.803 100.958 198.459C101.196 198.114 101.305 197.702 101.269 197.291V197.093L91.9062 196.43L102.1 194.744C102.414 194.692 102.698 194.532 102.899 194.295C103.1 194.057 103.204 193.758 103.192 193.453C103.18 193.147 103.052 192.856 102.833 192.634C102.614 192.412 102.317 192.274 102 192.245L90.1397 191.163L100.002 187.995C101.654 187.528 103.272 186.959 104.846 186.291C105.732 185.848 105.302 184.485 103.473 184.169Z" fill="#FFBE9D"/>
<path d="M65.4016 206.688C65.2111 206.877 65.002 207.047 64.7773 207.196C64.3529 207.507 63.7224 207.944 62.9422 208.482C61.3879 209.552 59.1969 210.987 56.9372 212.738C55.8012 213.623 54.7712 214.532 53.8786 215.363C53.0943 216.115 52.3605 216.913 51.6814 217.754C50.5266 219.213 49.9898 220.229 49.9336 220.199C50.0205 219.946 50.1378 219.703 50.2832 219.476C50.4309 219.196 50.5955 218.924 50.7763 218.663C50.9971 218.305 51.2367 217.957 51.4941 217.622C52.154 216.746 52.88 215.917 53.6664 215.141C54.6354 214.199 55.6586 213.309 56.7313 212.475C59.0159 210.712 61.2256 209.301 62.8111 208.29L64.6837 207.095C64.907 206.935 65.1477 206.799 65.4016 206.688Z" fill="#EB996E"/>
<path d="M101.319 165.786C101.319 165.977 101.26 166.165 101.149 166.324C101.038 166.483 100.88 166.607 100.695 166.681C100.51 166.754 100.307 166.773 100.111 166.736C99.9147 166.698 99.7345 166.606 99.5931 166.471C99.4516 166.335 99.3553 166.163 99.3163 165.975C99.2773 165.787 99.2973 165.592 99.3739 165.415C99.4504 165.238 99.58 165.087 99.7463 164.981C99.9126 164.874 100.108 164.817 100.308 164.817C100.576 164.817 100.834 164.919 101.023 165.101C101.213 165.283 101.319 165.529 101.319 165.786Z" fill="#E0E0E0"/>
<path d="M121.781 186.058L116.201 177.85C116.201 177.85 103.554 173.844 101.956 174.131C100.745 174.347 100.571 176.02 100.558 176.804C100.558 177.049 100.558 177.204 100.558 177.204L102.187 178.256L109.622 179.565L113.991 182.429L111.007 181.09L102.268 179.793C101.671 179.69 101.055 179.761 100.499 179.995C99.943 180.229 99.4726 180.617 99.1474 181.108C99.0101 181.329 99.1474 181.419 99.1037 181.646C98.9976 182.716 102.637 183.756 102.637 183.756L109.197 185.615L111.494 189.681L103.429 187.289C103.429 187.289 98.4733 188.862 98.1487 189.477C97.8241 190.093 101.526 191.647 101.825 191.659C102.125 191.671 108.136 194.332 108.136 194.332L102.219 194.565L95.8516 195.701L98.467 196.896L103.461 197.494L107.743 199.497L107.543 203.215C107.543 203.215 109.416 207.035 111.176 207.998C112.936 208.96 120.096 199.628 120.096 199.628L120.595 195.145L121.788 190.96L121.163 188.401L121.781 186.058Z" fill="#FFBE9D"/>
<path d="M111.172 207.998L120.329 249.08C120.329 249.08 123.113 257.73 133.169 257.73C142.401 257.73 145.784 241.045 145.784 241.045L153.818 199.879L135.822 198.367L130.884 222.734L120.098 199.604L111.172 207.998Z" fill="#FFBE9D"/>
<path d="M137.084 245.815C137.074 245.477 137.097 245.139 137.152 244.805C137.19 244.482 137.227 244.088 137.246 243.61C137.265 243.131 137.321 242.623 137.308 242.043C137.334 240.688 137.274 239.332 137.127 237.984C136.932 236.333 136.617 234.697 136.185 233.088C135.735 231.483 135.168 229.911 134.487 228.383C133.92 227.14 133.276 225.93 132.558 224.76C132.265 224.252 131.934 223.822 131.697 223.433C131.46 223.045 131.21 222.716 131.01 222.453C130.79 222.188 130.595 221.903 130.43 221.604C130.679 221.844 130.907 222.104 131.11 222.381C131.374 222.687 131.62 223.006 131.847 223.338C132.121 223.72 132.471 224.145 132.758 224.647C133.509 225.811 134.178 227.021 134.762 228.27C135.462 229.807 136.044 231.392 136.503 233.01C136.94 234.633 137.247 236.286 137.421 237.954C137.558 239.315 137.598 240.683 137.539 242.049C137.539 242.647 137.465 243.161 137.427 243.621C137.39 244.082 137.333 244.476 137.277 244.817C137.237 245.154 137.172 245.487 137.084 245.815Z" fill="#EB996E"/>
<path d="M155.162 199.969C155.127 199.844 155.106 199.716 155.1 199.586C155.071 199.299 155.033 198.929 154.988 198.474C154.9 197.47 154.782 196.083 154.632 194.385C154.332 190.936 153.958 186.159 153.458 180.899C153.296 179.332 153.171 177.796 152.915 176.367C152.513 175.052 151.79 173.847 150.805 172.852C149.289 171.211 147.598 169.724 145.762 168.416L143.078 167.316L142.366 167.011C142.284 166.978 142.204 166.938 142.129 166.892C142.129 166.892 142.223 166.892 142.391 166.963L143.115 167.221L145.837 168.243C147.718 169.525 149.445 171.003 150.986 172.649C152.016 173.674 152.77 174.923 153.184 176.289C153.452 177.748 153.577 179.278 153.739 180.845C154.239 186.112 154.582 190.888 154.819 194.343C154.925 196.047 155.013 197.434 155.075 198.444L155.125 199.556C155.151 199.692 155.164 199.831 155.162 199.969Z" fill="#263238"/>
<path d="M11 234.403L15.2009 260.845H39.6076L45.2755 234.786L11 234.403Z" fill="#7650A3"/>
<path d="M41.8616 251.351C41.8616 251.429 35.6195 251.488 27.8917 251.488C20.164 251.488 13.9219 251.429 13.9219 251.351C13.9219 251.273 20.164 251.214 27.8917 251.214C35.6195 251.214 41.8616 251.273 41.8616 251.351Z" fill="#FAFAFA"/>
<path d="M41.9551 250.048C41.9551 250.125 35.6568 250.185 27.8916 250.185C20.1264 250.185 13.8281 250.125 13.8281 250.048C13.8281 249.97 20.1264 249.928 27.8916 249.928C35.6568 249.928 41.9551 249.976 41.9551 250.048Z" fill="#FAFAFA"/>
<path d="M41.9004 248.583C41.9004 248.655 35.6084 248.721 27.8369 248.721C20.0655 248.721 13.7734 248.655 13.7734 248.583C13.7734 248.512 20.0717 248.446 27.8369 248.446C35.6021 248.446 41.9004 248.506 41.9004 248.583Z" fill="#FAFAFA"/>
<path d="M18.0024 259.338C17.6589 258.249 17.4084 257.136 17.2533 256.008C17.0046 254.896 16.8481 253.767 16.7852 252.631C17.1287 253.719 17.3792 254.833 17.5342 255.96C17.7829 257.073 17.9394 258.202 18.0024 259.338Z" fill="#FAFAFA"/>
<path d="M19.6697 259.057C19.4966 257.982 19.3944 256.898 19.3636 255.811C19.2392 254.729 19.1871 253.641 19.2074 252.553C19.6445 254.694 19.7998 256.879 19.6697 259.057Z" fill="#FAFAFA"/>
<path d="M22.6939 259.057C22.1178 256.854 21.8406 254.59 21.8692 252.32C22.0941 253.426 22.2526 254.544 22.344 255.667C22.5299 256.79 22.6468 257.922 22.6939 259.057Z" fill="#FAFAFA"/>
<path d="M24.8263 259.195C24.5945 258.081 24.4815 256.947 24.489 255.811C24.4059 254.679 24.4415 253.541 24.5952 252.415C24.7231 253.541 24.7836 254.673 24.7763 255.805C24.863 256.933 24.8797 258.065 24.8263 259.195Z" fill="#FAFAFA"/>
<path d="M28.5774 259.057C28.3921 257.996 28.3043 256.922 28.315 255.847C28.2179 254.775 28.2179 253.697 28.315 252.625C28.4967 253.686 28.5824 254.76 28.5712 255.835C28.6644 256.907 28.6665 257.985 28.5774 259.057Z" fill="#FAFAFA"/>
<path d="M31.3193 259.194C31.1422 256.983 31.161 254.761 31.3755 252.553C31.5442 254.764 31.5254 256.986 31.3193 259.194Z" fill="#FAFAFA"/>
<path d="M33.8941 258.842C33.8735 257.681 33.9445 256.52 34.1065 255.369C34.1752 254.21 34.3403 253.059 34.6001 251.925C34.6208 253.086 34.5497 254.247 34.3877 255.398C34.319 256.557 34.154 257.708 33.8941 258.842Z" fill="#FAFAFA"/>
<path d="M37.2148 258.495C37.3215 256.506 37.7664 254.548 38.5319 252.696C38.3842 253.676 38.1758 254.646 37.9077 255.602C37.7329 256.578 37.5016 257.544 37.2148 258.495Z" fill="#FAFAFA"/>
<path d="M34.8786 182.232C34.8812 182.274 34.8812 182.315 34.8786 182.357L34.7663 182.734L34.2669 184.169C34.0609 184.766 33.8112 185.538 33.5491 186.428C33.2869 187.319 32.9623 188.317 32.6689 189.417C32.3756 190.517 32.0447 191.767 31.7201 193.1C31.3955 194.433 31.0959 195.856 30.7776 197.356C30.197 200.375 29.6602 203.705 29.2857 207.226C28.9112 210.748 28.7614 214.119 28.7114 217.186C28.7114 218.716 28.7114 220.175 28.7551 221.538C28.7988 222.901 28.855 224.169 28.9299 225.328C29.0048 226.488 29.0984 227.528 29.1733 228.449C29.2482 229.37 29.3294 230.159 29.4043 230.804C29.4792 231.45 29.5291 231.928 29.5666 232.287C29.5666 232.448 29.5666 232.574 29.604 232.675C29.6415 232.777 29.604 232.807 29.604 232.807C29.604 232.807 29.604 232.765 29.604 232.681C29.604 232.598 29.5666 232.454 29.5416 232.299C29.4917 231.934 29.4168 231.438 29.3294 230.816C29.242 230.195 29.1296 229.381 29.0423 228.461C28.9549 227.54 28.8238 226.5 28.7614 225.34C28.6989 224.18 28.5866 222.913 28.5491 221.544C28.5117 220.175 28.4867 218.716 28.4805 217.18C28.5117 214.107 28.674 210.73 29.0298 207.197C29.3856 203.663 29.9536 200.328 30.5529 197.309C30.8774 195.808 31.1771 194.373 31.5204 193.046C31.8637 191.719 32.182 190.488 32.5066 189.37C32.8312 188.252 33.1308 187.241 33.4305 186.381C33.7301 185.52 33.9673 184.737 34.192 184.127L34.7101 182.716L34.8225 182.375C34.8537 182.268 34.8724 182.226 34.8786 182.232Z" fill="#455A64"/>
<path d="M30.4432 198.6C31.1139 196.694 32.4555 195.071 34.2384 194.009C34.5176 193.799 34.8458 193.657 35.1948 193.596C35.5439 193.534 35.9033 193.555 36.2421 193.656C37.0973 194.051 37.1659 195.198 36.91 196.047C36.4699 197.521 35.4905 198.795 34.151 199.634C32.96 200.481 31.4678 200.842 30 200.639" fill="#455A64"/>
<path d="M28.9802 209.659C29.6044 207.376 31.5145 204.13 33.487 202.719C33.7894 202.482 34.137 202.303 34.5107 202.193C34.6993 202.143 34.8978 202.137 35.0892 202.177C35.2805 202.216 35.459 202.3 35.6093 202.42C35.7774 202.634 35.8876 202.885 35.93 203.15C35.9725 203.415 35.946 203.686 35.8527 203.938C35.4489 205.603 34.5686 207.127 33.3105 208.34C32.0524 209.552 30.4664 210.404 28.7305 210.801" fill="#455A64"/>
<path d="M28.5703 219.392C29.5486 217.211 31.1175 215.321 33.1146 213.916C33.3279 213.729 33.578 213.585 33.8502 213.491C34.1224 213.398 34.4113 213.357 34.7001 213.372C35.5615 213.521 35.9485 214.532 35.8798 215.369C35.7238 217.09 34.3505 218.471 32.9335 219.553C31.6294 220.412 30.2154 221.108 28.7264 221.622" fill="#455A64"/>
<path d="M28.8047 226.386C29.7514 224.724 31.0709 223.282 32.6686 222.166C33.0111 221.918 33.4082 221.748 33.8296 221.67C34.0402 221.634 34.257 221.653 34.457 221.726C34.657 221.799 34.8327 221.922 34.9657 222.082C35.3589 222.632 34.9657 223.367 34.5724 223.876C33.2071 225.695 31.2754 227.053 29.0544 227.755" fill="#455A64"/>
<path d="M28.6097 223.541C26.9411 221.59 25.0899 219.789 23.0792 218.161C22.9439 218.012 22.7722 217.897 22.5794 217.827C22.3866 217.757 22.1787 217.734 21.9744 217.76C21.8282 217.82 21.7029 217.919 21.6134 218.045C21.5238 218.171 21.4736 218.319 21.4688 218.471C21.4676 218.778 21.5403 219.081 21.681 219.356C22.342 220.764 23.3256 222.01 24.5585 223.004C25.7915 223.997 27.2423 224.712 28.8033 225.095" fill="#455A64"/>
<path d="M28.784 214.442L24.4146 209.367C24.0416 208.858 23.5714 208.422 23.0288 208.081C22.763 207.89 22.4408 207.785 22.1085 207.78C21.7762 207.775 21.4509 207.871 21.1791 208.055C20.9074 208.238 20.7033 208.499 20.596 208.8C20.4887 209.101 20.4837 209.427 20.5819 209.731C20.7388 210.338 21.0281 210.907 21.4308 211.399C22.2729 212.658 23.345 213.762 24.5956 214.657C25.844 215.5 27.03 216.044 28.5656 215.853" fill="#455A64"/>
<path d="M29.3925 204.189C28.5401 201.763 27.0326 199.595 25.023 197.906C24.7063 197.602 24.3127 197.382 23.8807 197.267C23.4382 197.235 22.9978 197.351 22.6347 197.595C22.2716 197.839 22.0082 198.196 21.8895 198.606C21.7517 199.066 21.7155 199.549 21.7832 200.024C21.8509 200.498 22.021 200.954 22.2827 201.362C22.8157 202.174 23.5116 202.877 24.3301 203.43C25.7924 204.503 27.4232 205.346 29.1615 205.929" fill="#455A64"/>
<path d="M31.1257 195.049C30.7074 192.108 29.1095 189.668 27.2555 187.277C26.8623 186.775 26.3192 186.243 25.6763 186.339C25.4711 186.38 25.28 186.47 25.1207 186.601C24.9615 186.731 24.8391 186.898 24.7649 187.086C24.6178 187.468 24.5603 187.876 24.5964 188.282C24.6769 190.064 25.3034 191.784 26.3979 193.228C27.4924 194.672 29.0064 195.775 30.7511 196.4" fill="#455A64"/>
<path d="M32.3154 190.386C32.1149 188.878 32.0606 187.355 32.1531 185.837C32.2551 184.312 32.8023 182.845 33.7324 181.604C34.1317 181.072 34.6788 180.658 35.3116 180.408C35.6293 180.288 35.9738 180.247 36.3124 180.29C36.6511 180.333 36.9727 180.458 37.2467 180.653C37.4802 180.857 37.663 181.109 37.7818 181.389C37.9006 181.669 37.9524 181.972 37.9333 182.274C37.8775 182.879 37.7106 183.47 37.4402 184.019C36.2854 186.685 34.3566 189.639 32.3404 190.386" fill="#455A64"/>
<path d="M13.4202 193.889C13.4311 194.012 13.4311 194.136 13.4202 194.26C13.4202 194.535 13.4202 194.888 13.4202 195.33C13.4202 195.772 13.4202 196.358 13.4202 197.016C13.4202 197.673 13.4202 198.421 13.5076 199.252C13.5825 200.902 13.7448 202.838 14.007 205.044C14.2691 207.25 14.6749 209.594 15.2117 212.063C15.7485 214.532 16.4039 216.845 17.0843 218.962C17.7647 221.078 18.4264 222.913 19.0506 224.461C19.344 225.239 19.6748 225.926 19.912 226.536C20.1492 227.146 20.3989 227.666 20.5924 228.09L21.0294 229.077C21.0857 229.188 21.1317 229.304 21.1667 229.423C21.0903 229.324 21.0274 229.215 20.9794 229.101L20.4925 228.138C20.2803 227.72 20.0306 227.205 19.7622 226.596C19.4938 225.986 19.1692 225.304 18.8633 224.527C18.2391 222.991 17.515 221.126 16.8284 219.033C16.1418 216.941 15.5051 214.604 14.9558 212.123C14.4065 209.642 14.0382 207.25 13.7698 205.074C13.5014 202.898 13.3765 200.89 13.3266 199.258C13.2829 198.427 13.2954 197.679 13.2829 197.016C13.2704 196.352 13.2829 195.79 13.2829 195.33C13.2829 194.87 13.2829 194.529 13.3203 194.26C13.3369 194.133 13.3705 194.008 13.4202 193.889Z" fill="#263238"/>
<path d="M14.0938 205.941C14.1234 204.508 14.6704 203.128 15.6418 202.037C15.7854 201.836 15.9781 201.67 16.2032 201.556C16.4282 201.441 16.679 201.381 16.9339 201.38C17.6018 201.475 17.9077 202.241 17.9264 202.886C17.9639 203.985 17.5847 205.06 16.859 205.911C16.2375 206.73 15.3049 207.282 14.2623 207.448" fill="#263238"/>
<path d="M15.5702 213.779C15.4891 212.093 16.0509 209.492 17.0808 208.123C17.233 207.899 17.4304 207.706 17.6613 207.555C17.7775 207.483 17.9104 207.438 18.0485 207.426C18.1866 207.413 18.3258 207.433 18.4541 207.484C18.618 207.593 18.7507 207.74 18.8401 207.911C18.9295 208.083 18.9728 208.273 18.9659 208.464C19.0647 209.681 18.8075 210.901 18.2232 211.987C17.6389 213.072 16.7505 213.98 15.6576 214.609" fill="#263238"/>
<path d="M17.4805 220.486C17.6597 218.8 18.3062 217.19 19.3531 215.823C19.4562 215.652 19.5937 215.503 19.7577 215.384C19.9217 215.265 20.1088 215.179 20.3081 215.13C20.9324 215.052 21.4255 215.656 21.5566 216.242C21.8375 217.437 21.2133 218.669 20.4892 219.691C19.7972 220.545 18.9913 221.309 18.0922 221.963" fill="#263238"/>
<path d="M19.207 225.203C19.4798 223.875 20.0553 222.622 20.8924 221.532C21.0663 221.284 21.2995 221.079 21.5728 220.934C21.7081 220.865 21.8606 220.833 22.0136 220.842C22.1666 220.85 22.3143 220.899 22.4404 220.982C22.8275 221.269 22.7401 221.849 22.5715 222.291C22.0531 223.812 21.0431 225.135 19.6877 226.07" fill="#263238"/>
<path d="M18.4396 223.308C16.8585 222.32 15.1871 221.472 13.4459 220.773C13.3213 220.699 13.1794 220.657 13.0333 220.65C12.8872 220.643 12.7414 220.67 12.6095 220.731C12.5187 220.801 12.4522 220.895 12.4188 221.002C12.3853 221.109 12.3865 221.223 12.4222 221.329C12.4894 221.539 12.6069 221.732 12.7656 221.891C13.5315 222.713 14.4808 223.359 15.543 223.781C16.6053 224.203 17.7532 224.391 18.9016 224.33" fill="#263238"/>
<path d="M16.5101 217.049L12.4153 214.49C12.042 214.217 11.6185 214.015 11.1669 213.892C10.9351 213.797 10.6769 213.78 10.4334 213.842C10.1898 213.904 9.97493 214.042 9.82281 214.234C9.6707 214.427 9.59012 214.662 9.59388 214.904C9.59764 215.145 9.68552 215.378 9.84356 215.566C10.0881 215.946 10.4135 216.272 10.7986 216.522C11.6541 217.197 12.6286 217.719 13.6762 218.065C14.1444 218.258 14.6489 218.358 15.1587 218.358C15.6686 218.358 16.173 218.258 16.6412 218.065" fill="#263238"/>
<path d="M14.6167 209.97C13.4962 208.496 11.9889 207.33 10.2472 206.593C9.96535 206.449 9.64841 206.381 9.32961 206.395C9.02001 206.462 8.74479 206.631 8.55199 206.873C8.35919 207.114 8.26104 207.413 8.27469 207.717C8.28374 208.058 8.36727 208.394 8.51991 208.703C8.67256 209.012 8.89095 209.287 9.16107 209.51C9.71137 209.954 10.3478 210.289 11.0337 210.496C12.2557 210.917 13.5378 211.154 14.8352 211.202" fill="#263238"/>
<path d="M13.7442 203.388C12.8016 201.475 11.1599 200.136 9.37468 198.899C9.20821 198.743 9.00148 198.632 8.77558 198.577C8.54968 198.523 8.31269 198.526 8.0888 198.588C7.95909 198.658 7.84991 198.758 7.77135 198.88C7.6928 199.001 7.64741 199.139 7.63937 199.281C7.62405 199.568 7.67522 199.853 7.78918 200.118C8.24398 201.314 9.05673 202.355 10.1259 203.111C11.195 203.867 12.4731 204.305 13.8003 204.369" fill="#263238"/>
<path d="M13.5258 199.963C13.0477 198.978 12.6693 197.951 12.3959 196.896C12.1192 195.839 12.1603 194.728 12.5145 193.692C12.6638 193.242 12.943 192.842 13.3198 192.538C13.5097 192.392 13.7351 192.293 13.9752 192.253C14.2152 192.212 14.4621 192.23 14.693 192.305C14.8965 192.399 15.0755 192.535 15.2169 192.704C15.3584 192.872 15.4588 193.069 15.5108 193.279C15.611 193.703 15.63 194.14 15.5669 194.571C15.3797 196.621 14.7305 199.03 13.5258 199.951" fill="#263238"/>
<path d="M44.2792 193.632C44.2886 193.755 44.2886 193.879 44.2792 194.003C44.2792 194.278 44.2792 194.63 44.3229 195.073C44.3666 195.515 44.3229 196.101 44.3229 196.759C44.3229 197.416 44.3229 198.169 44.2792 199C44.2292 200.662 44.0857 202.635 43.836 204.817C43.5863 206.999 43.2118 209.384 42.65 211.865C42.0882 214.346 41.4515 216.678 40.7773 218.776C40.1032 220.875 39.3978 222.734 38.7487 224.276C38.4365 225.047 38.1244 225.735 37.8435 226.339C37.5626 226.942 37.3255 227.462 37.1195 227.881C36.9135 228.299 36.7574 228.598 36.6326 228.843C36.5815 228.957 36.5188 229.065 36.4453 229.166C36.4769 229.047 36.5208 228.931 36.5764 228.82L37.0133 227.833C37.2131 227.415 37.4441 226.895 37.7 226.279C37.9559 225.663 38.2618 224.982 38.5551 224.204C39.1794 222.662 39.8535 220.797 40.5277 218.704C41.2018 216.612 41.826 214.281 42.4003 211.806C42.9746 209.331 43.3241 206.957 43.605 204.787C43.8859 202.617 44.0357 200.644 44.1106 198.994C44.1668 198.163 44.173 197.416 44.1918 196.759C44.2105 196.101 44.1918 195.533 44.1918 195.073C44.1918 194.612 44.1918 194.278 44.1918 194.003C44.2055 193.876 44.2348 193.752 44.2792 193.632Z" fill="#455A64"/>
<path d="M43.5911 205.69C43.5602 204.254 43.011 202.872 42.0368 201.78C41.8946 201.579 41.7031 201.413 41.479 201.299C41.2549 201.184 41.005 201.124 40.751 201.123C40.0831 201.218 39.7772 201.984 39.7522 202.629C39.7171 203.729 40.0984 204.803 40.8259 205.654C41.445 206.475 42.3788 207.028 43.4226 207.191" fill="#455A64"/>
<path d="M42.1174 213.521C42.2048 211.836 41.6368 209.235 40.6131 207.866C40.4609 207.642 40.2635 207.449 40.0325 207.298C39.9152 207.225 39.7813 207.181 39.6422 207.168C39.5031 207.156 39.3629 207.176 39.2336 207.226C39.0739 207.34 38.9448 207.487 38.8569 207.658C38.7689 207.829 38.7247 208.017 38.7279 208.207C38.6285 209.424 38.8848 210.643 39.468 211.729C40.0512 212.814 40.9383 213.722 42.03 214.352" fill="#455A64"/>
<path d="M40.2097 220.229C40.0308 218.543 39.3842 216.933 38.3371 215.566C38.2336 215.395 38.0951 215.245 37.93 215.126C37.7648 215.007 37.5764 214.92 37.3758 214.873C36.7516 214.795 36.2647 215.399 36.1273 215.984C35.8465 217.18 36.4707 218.412 37.1947 219.434C37.8874 220.289 38.6931 221.055 39.5917 221.712" fill="#455A64"/>
<path d="M38.4812 224.946C38.2056 223.619 37.6304 222.366 36.7958 221.275C36.6187 221.029 36.3861 220.825 36.1154 220.677C35.9803 220.608 35.8277 220.575 35.6745 220.584C35.5214 220.592 35.3736 220.641 35.2477 220.725C34.8607 221.012 34.9481 221.592 35.1104 222.034C35.6288 223.555 36.6388 224.878 37.9943 225.812" fill="#455A64"/>
<path d="M39.251 223.027C40.8318 222.039 42.5033 221.19 44.2447 220.492C44.3704 220.419 44.5133 220.376 44.6605 220.369C44.8076 220.362 44.9543 220.39 45.0874 220.45C45.1757 220.522 45.24 220.617 45.2722 220.723C45.3044 220.829 45.3031 220.942 45.2684 221.048C45.2035 221.258 45.088 221.451 44.9313 221.61C44.1641 222.432 43.2137 223.078 42.1504 223.5C41.0872 223.922 39.9383 224.11 38.7891 224.049" fill="#455A64"/>
<path d="M41.174 216.815L45.275 214.257C45.6475 213.983 46.0713 213.78 46.5235 213.659C46.7466 213.607 46.9802 213.613 47.1999 213.677C47.4195 213.742 47.6171 213.861 47.7719 214.024C47.8959 214.214 47.9617 214.433 47.9617 214.657C47.9617 214.881 47.8959 215.101 47.7719 215.291C47.5297 215.67 47.2063 215.996 46.8231 216.247C45.9654 216.922 44.9887 217.444 43.9392 217.79C43.4719 217.982 42.9685 218.081 42.4599 218.081C41.9512 218.081 41.4478 217.982 40.9805 217.79" fill="#455A64"/>
<path d="M43.0638 209.713C44.1849 208.239 45.692 207.074 47.4332 206.336C47.7146 206.191 48.0319 206.123 48.3508 206.138C48.6689 206.202 48.9526 206.373 49.1506 206.62C49.3487 206.866 49.448 207.173 49.4307 207.483C49.4213 207.825 49.3376 208.161 49.185 208.47C49.0323 208.778 48.8142 209.053 48.5443 209.277C47.9949 209.722 47.3582 210.057 46.6717 210.263C45.4347 210.691 44.1349 210.929 42.8203 210.969" fill="#455A64"/>
<path d="M43.939 203.131C44.8878 201.218 46.5232 199.879 48.3085 198.642C48.4753 198.486 48.682 198.376 48.9078 198.321C49.1336 198.266 49.3704 198.27 49.5943 198.331C49.7248 198.4 49.8346 198.5 49.9133 198.622C49.992 198.743 50.0369 198.882 50.0438 199.024C50.0583 199.31 50.0094 199.595 49.9002 199.861C49.4432 201.058 48.6292 202.099 47.5593 202.856C46.4895 203.612 45.211 204.051 43.8828 204.118" fill="#455A64"/>
<path d="M44.1797 199.712C44.655 198.725 45.0333 197.699 45.3095 196.645C45.5812 195.587 45.5379 194.477 45.1846 193.441C45.0328 192.994 44.754 192.596 44.3794 192.293C44.1913 192.145 43.9666 192.047 43.7271 192.007C43.4876 191.967 43.2414 191.988 43.0124 192.066C42.8078 192.159 42.6276 192.295 42.485 192.463C42.3424 192.632 42.2411 192.829 42.1884 193.04C42.0867 193.463 42.0635 193.9 42.1198 194.331C42.307 196.382 42.9625 198.791 44.1672 199.712" fill="#455A64"/>
<path d="M8.19141 229.166V234.116C8.19141 234.633 8.4058 235.129 8.78742 235.494C9.16905 235.86 9.68664 236.065 10.2263 236.065H45.5692C45.8364 236.065 46.101 236.015 46.3479 235.917C46.5948 235.819 46.8191 235.675 47.0081 235.494C47.1971 235.313 47.347 235.098 47.4492 234.862C47.5515 234.625 47.6041 234.372 47.6041 234.116V229.166H8.19141Z" fill="#7650A3"/>
<g opacity="0.4">
<path d="M11.2617 236.065L11.5551 237.637L44.1701 239.867L44.9941 236.065H11.2617Z" fill="black"/>
</g>
<path d="M47.55 92.057C63.2702 92.057 76.014 79.8949 76.014 64.8922C76.014 49.8895 63.2702 37.7274 47.55 37.7274C31.8297 37.7274 19.0859 49.8895 19.0859 64.8922C19.0859 79.8949 31.8297 92.057 47.55 92.057Z" fill="#FAFAFA"/>
<path d="M77.4505 84.5544C77.1778 84.6204 76.909 84.7002 76.6453 84.7936C75.9397 85.0797 75.3443 85.5685 74.9412 86.1924C74.6596 86.616 74.4785 87.0935 74.4106 87.5913C74.3481 88.1586 74.4564 88.7311 74.7227 89.2413C74.9985 89.8471 75.4618 90.3572 76.0501 90.7027C76.6383 91.0482 77.3231 91.2125 78.0119 91.1734C78.7008 91.1343 79.3605 90.8937 79.9019 90.484C80.4434 90.0743 80.8405 89.5154 81.0397 88.8826C81.2422 88.3458 81.2769 87.7641 81.1396 87.2087C81.014 86.7227 80.7773 86.2694 80.4467 85.8816C79.9672 85.3065 79.3127 84.8887 78.5741 84.6859C78.3008 84.6199 78.0235 84.5699 77.7439 84.5365C77.7439 84.5365 77.8188 84.5365 77.9686 84.5365C78.0578 84.5283 78.1477 84.5283 78.237 84.5365C78.3592 84.5467 78.4803 84.5667 78.599 84.5963C79.3787 84.7779 80.0754 85.1975 80.584 85.7919C80.9443 86.193 81.2047 86.6672 81.3456 87.1788C81.4993 87.7717 81.4711 88.3944 81.2644 88.9723C81.0341 89.6109 80.6262 90.1773 80.0847 90.6103C79.5141 91.1006 78.7868 91.3912 78.0215 91.4346C77.2563 91.4781 76.4983 91.2718 75.8712 90.8494C75.2778 90.4826 74.8024 89.9652 74.498 89.3549C74.2143 88.7988 74.1079 88.1751 74.1921 87.5614C74.2674 87.0486 74.4615 86.5584 74.7601 86.1267C75.1964 85.4851 75.8382 84.9964 76.5891 84.7338C76.7049 84.6915 76.8238 84.6575 76.9449 84.6321C77.0309 84.6114 77.1186 84.5974 77.207 84.5903C77.3756 84.5484 77.4505 84.5425 77.4505 84.5544Z" fill="#263238"/>
<path d="M75.9681 67.122C75.9681 67.122 75.9681 66.9726 75.9681 66.6796C75.9681 66.3867 75.9681 65.9503 75.9681 65.3883C75.9681 65.1014 75.9681 64.7905 75.9681 64.4318C75.9681 64.0731 75.9119 63.7025 75.887 63.29C75.862 62.8775 75.8121 62.4291 75.7746 61.9509C75.7625 61.7056 75.7291 61.4616 75.6747 61.2216C75.6248 60.9705 75.5811 60.7134 75.5312 60.4444C75.0785 57.8586 74.2199 55.3533 72.9844 53.0135C71.3741 49.9025 69.153 47.1178 66.4426 44.8115L65.2941 43.855C64.8884 43.5501 64.4577 43.2572 64.0457 42.9762L63.4215 42.5338C63.2117 42.3746 62.9882 42.2326 62.7536 42.1094L61.3428 41.3262C61.1056 41.1947 60.8684 41.0572 60.625 40.9317L59.8697 40.6029L58.3279 39.9273C57.8036 39.7181 57.248 39.5686 56.6987 39.3773L55.8747 39.1083C55.7374 39.0665 55.6001 39.0127 55.4565 38.9768L55.0258 38.8812C53.8649 38.5849 52.6846 38.3632 51.4928 38.2176C50.8686 38.1518 50.2818 38.0502 49.6638 38.0143L47.7912 37.9665C47.4791 37.9665 47.167 37.9665 46.8424 37.9665L45.8936 38.0323C45.2694 38.0861 44.6452 38.11 43.9773 38.1877C42.6793 38.3637 41.3948 38.6213 40.1321 38.9589L39.1709 39.2219C39.0086 39.2638 38.8463 39.2996 38.6902 39.3534L38.222 39.5268L36.3494 40.2322C35.7252 40.4953 35.101 40.83 34.5142 41.105C34.2146 41.2605 33.89 41.386 33.6029 41.5653L32.7227 42.0974C31.5345 42.8239 30.3961 43.6226 29.3146 44.4887L27.7603 45.8935L27.3733 46.2463C27.2484 46.3718 27.1361 46.5033 27.0112 46.6289L26.2996 47.412L25.588 48.1892L24.9638 49.0381L24.3396 49.887L24.0212 50.3114C23.9214 50.4609 23.834 50.6163 23.7403 50.7657C23.3721 51.3636 22.9975 51.9614 22.6292 52.601C22.261 53.2407 22.005 53.8923 21.6992 54.538C19.3102 59.9144 18.8235 65.8917 20.3134 71.5578L20.9376 73.6143C21.204 74.2799 21.4724 74.9375 21.7429 75.5871L21.9426 76.0773L22.1923 76.5496L22.6854 77.4822L23.1786 78.4148L23.7591 79.2936L24.3333 80.1664L24.6267 80.6028L24.9576 81.0093L26.2622 82.6294C27.1803 83.6177 28.16 84.552 29.196 85.4272L29.9762 86.0788C30.2384 86.3 30.5318 86.4733 30.8064 86.6766C31.3682 87.0592 31.9113 87.4597 32.4793 87.8124L34.2333 88.7929L34.664 89.032L35.1197 89.2352L36.0311 89.6358C37.2218 90.1588 38.448 90.6042 39.7014 90.9689C40.3256 91.1423 40.9499 91.2618 41.5741 91.4053L42.4979 91.6146C42.81 91.6803 43.1221 91.6982 43.4342 91.7461L45.3068 91.9732C45.9311 92.0271 46.5553 92.0151 47.1795 92.045C48.3797 92.0796 49.581 92.0357 50.7749 91.9135H51.2181L51.6488 91.8417L52.5102 91.6983C53.0783 91.5966 53.6526 91.5309 54.2081 91.3993L55.8373 90.9629L56.6425 90.7477L57.4165 90.4667L58.9334 89.8988C59.1851 89.8116 59.4293 89.7057 59.6637 89.582L60.3691 89.2412C60.8372 89.0141 61.3054 88.7988 61.7548 88.5597L63.0469 87.7826C66.1 85.9091 68.7454 83.4872 70.8371 80.6506C71.0743 80.3397 71.3053 80.0528 71.5237 79.7359L72.098 78.7974L72.6473 77.8947C72.7347 77.7452 72.8346 77.6017 72.9095 77.4523C72.9844 77.3028 73.0593 77.1534 73.128 77.0039L73.9519 75.2942C74.1954 74.7442 74.3576 74.1942 74.5761 73.686C74.6698 73.435 74.7571 73.1839 74.8445 72.9447C74.9393 72.7164 75.0124 72.4803 75.063 72.2393C75.1816 71.773 75.2877 71.3366 75.3876 70.9361C75.4875 70.5355 75.5936 70.1589 75.656 69.8122L75.7933 68.8736C75.8745 68.3117 75.9369 67.8872 75.9806 67.5943C76.0243 67.3014 76.0493 67.1579 76.0493 67.1579C76.0493 67.1579 76.0493 67.3014 76.0056 67.5943C75.9619 67.8872 75.9119 68.3176 75.8433 68.8796C75.8058 69.1606 75.7684 69.4774 75.7247 69.8241C75.681 70.1709 75.5561 70.5415 75.4687 70.948C75.3814 71.3545 75.2627 71.791 75.1504 72.2632C75.1021 72.506 75.031 72.7441 74.9382 72.9746C74.8508 73.2138 74.7634 73.4648 74.676 73.7219C74.4825 74.23 74.3264 74.78 74.083 75.336C73.8396 75.892 73.5524 76.4539 73.2653 77.0577C73.1966 77.2072 73.1217 77.3566 73.053 77.5121C72.9844 77.6675 72.8783 77.805 72.7909 77.9544L72.2416 78.8631L71.6673 79.8077C71.4551 80.1185 71.2179 80.4055 70.9869 80.7343C68.8877 83.5846 66.2342 86.0203 63.1718 87.9081L61.8797 88.6972C61.424 88.9363 60.9496 89.1516 60.4814 89.3847L59.7698 89.7314C59.5327 89.8559 59.2866 89.9638 59.0333 90.0543L57.5102 90.6222C57.248 90.7178 56.9921 90.8195 56.7299 90.9091L55.9247 91.1303L54.283 91.5727C53.7212 91.7042 53.1469 91.776 52.5727 91.8776L51.705 92.027C51.5614 92.027 51.4179 92.0809 51.2681 92.0928L50.8249 92.1287C49.6206 92.253 48.4089 92.299 47.1982 92.2662C46.574 92.2662 45.9498 92.2662 45.3256 92.2004L43.4529 91.9673C43.1408 91.9254 42.8287 91.9015 42.5104 91.8417L41.5741 91.6325C40.9499 91.483 40.3256 91.3694 39.7014 91.1961C38.4376 90.8273 37.201 90.378 35.9999 89.851L35.0823 89.4505L34.6203 89.2472L34.1834 89.0021L32.317 88.0097C31.7427 87.651 31.1934 87.2445 30.6254 86.8619C30.3507 86.6646 30.0511 86.4913 29.7889 86.2641L29.0024 85.6005C27.9333 84.71 26.9261 83.7535 25.9875 82.737L24.6642 81.1049L24.3333 80.6984L24.04 80.256L23.4594 79.3773L22.8727 78.4925L22.3733 77.5539L21.8739 76.6094L21.6243 76.1311L21.4183 75.6409C21.1499 74.9773 20.8815 74.3137 20.6068 73.6442C20.3321 72.9746 20.2073 72.2692 19.9826 71.5698C18.4783 65.8515 18.9716 59.8187 21.3871 54.3945L22.3234 52.4337C22.6979 51.8358 23.0724 51.2022 23.4407 50.5864C23.5406 50.4369 23.628 50.2815 23.7279 50.1321L24.0462 49.7016L24.6704 48.8408L25.2946 47.9859L26.0749 47.2087L26.7927 46.4196C26.9176 46.2941 27.0299 46.1566 27.1548 46.031L27.548 45.6783L29.146 44.2794C30.2343 43.4083 31.3834 42.6093 32.5854 41.8882L33.4718 41.3501C33.7652 41.1708 34.096 41.0452 34.3894 40.8898C35.0136 40.5969 35.6378 40.292 36.262 40.011L38.1721 39.2996L38.6403 39.1263C38.8026 39.0724 38.9649 39.0366 39.1272 38.9888L40.1009 38.7317C41.3739 38.3915 42.6688 38.1319 43.9773 37.9545C44.6015 37.8768 45.2694 37.8529 45.9123 37.8051L46.8674 37.7393C47.1857 37.7393 47.4916 37.7393 47.8224 37.7393L49.695 37.7871C50.3193 37.829 50.9435 37.9306 51.5677 38.0024C52.7688 38.1442 53.9578 38.368 55.1257 38.6719L55.5564 38.7735C55.7 38.8094 55.8373 38.8632 55.9809 38.9051L56.8111 39.1801C57.3604 39.3654 57.9222 39.5208 58.4527 39.736L60.0008 40.4175L60.7623 40.7523C61.012 40.8779 61.2492 41.0213 61.4864 41.1529L62.9034 41.9479C63.1353 42.0755 63.3584 42.2172 63.5713 42.3724L64.1955 42.8208C64.6262 43.1197 65.0569 43.4186 65.4439 43.7115C65.8309 44.0044 66.2179 44.3631 66.5987 44.68C69.3195 47.0078 71.545 49.8173 73.1529 52.9538C74.378 55.3103 75.22 57.8323 75.6498 60.4324C75.6935 60.6955 75.7434 60.9525 75.7871 61.2096C75.8388 61.4521 75.8721 61.6978 75.887 61.9449C75.887 62.4232 75.9494 62.8655 75.9806 63.284C76.0118 63.7025 76.0493 64.0791 76.0555 64.4318L76.018 65.3883C76.018 65.9503 75.9806 66.3807 75.9681 66.6796C75.9556 66.9785 75.9681 67.122 75.9681 67.122Z" fill="#263238"/>
<path d="M38.7353 58.3641H43.729C43.729 58.3641 43.729 54.3707 48.061 54.299C48.8964 54.2698 49.7205 54.4908 50.4186 54.9312C51.1168 55.3715 51.6542 56.0094 51.9561 56.756C52.2177 57.3792 52.3218 58.0527 52.26 58.7218C52.1982 59.3909 51.9721 60.0364 51.6003 60.6059C50.7576 61.9391 48.9162 63.1466 45.5641 62.5847V73.3095H50.4767V67.0265C50.4767 67.0265 57.343 65.3227 57.343 58.0592C57.343 51.1066 50.8263 49.4925 48.0423 49.4925C45.9075 49.4806 38.6416 49.9708 38.7353 58.3641Z" fill="#263238"/>
<path d="M50.5109 75.5215H45.5234V79.9812H50.5109V75.5215Z" fill="#263238"/>
<path d="M282 260.845C282 260.934 218.867 261 141.003 261C63.139 261 0 260.934 0 260.845C0 260.755 63.1203 260.689 141.003 260.689C218.886 260.689 282 260.761 282 260.845Z" fill="#263238"/>
</svg>
