<svg width="32" height="32" viewBox="0 0 32 32" fill="none" xmlns="http://www.w3.org/2000/svg">
<path fill-rule="evenodd" clip-rule="evenodd" d="M4.38657 19.3984C4.38657 19.8186 4.4494 20.2389 4.59848 20.7383L4.64145 20.8799C5.27351 22.7656 7.01388 24.0322 8.97055 24.0322H26.7137L25.6131 27.5723C25.3014 28.776 24.1887 29.5937 22.9715 29.5938C22.734 29.5936 22.4973 29.5624 22.2674 29.502L3.36704 24.3848C1.90926 23.9781 1.04052 22.4521 1.42172 20.9805L4.38657 10.9736V19.3984ZM27.6092 2.40723C29.2936 2.40723 30.6648 3.79426 30.6649 5.49707V19.0898C30.6649 20.7927 29.2936 22.1797 27.6092 22.1797H9.27622C7.59215 22.1797 6.22057 20.7927 6.22055 19.0898V5.49707C6.22059 3.79426 7.59217 2.40723 9.27622 2.40723H27.6092ZM9.27622 4.87891C8.93899 4.87891 8.6649 5.15591 8.66489 5.49707V17.1611L12.0379 13.752C12.8728 12.9068 14.2333 12.9068 15.0692 13.752L16.5487 15.2432L21.0877 9.73438C21.4935 9.24251 22.0875 8.95869 22.7206 8.95508C23.3573 8.96973 23.9506 9.22927 24.3602 9.71484L28.2206 14.2695V5.49707C28.2205 5.15593 27.9467 4.87891 27.6092 4.87891H9.27622ZM12.3319 6.11426C13.6799 6.11441 14.7761 7.22312 14.7762 8.58594C14.7762 9.94885 13.68 11.0575 12.3319 11.0576C10.9837 11.0576 9.88657 9.94889 9.88657 8.58594C9.88668 7.22308 10.9837 6.11426 12.3319 6.11426Z" fill="#A3A3A3"/>
</svg>
