<svg width="16" height="21" viewBox="0 0 16 21" fill="none" xmlns="http://www.w3.org/2000/svg">
<path d="M2.40006 0.600616L4.06034 0.100045C4.60829 -0.0648985 5.19753 -0.0248784 5.71815 0.21264C6.23876 0.450158 6.6552 0.868952 6.88977 1.3909L8.05377 3.97947C8.2558 4.42855 8.31211 4.92962 8.21479 5.41234C8.11748 5.89505 7.87143 6.33517 7.5112 6.6709L5.73948 8.32176C5.50206 8.54719 5.68206 9.42576 6.54948 10.9292C7.41777 12.4335 8.08891 13.0283 8.39834 12.9358L10.7195 12.226C11.19 12.0821 11.6937 12.0891 12.1601 12.2458C12.6264 12.4026 13.0321 12.7014 13.3201 13.1003L14.9743 15.3932C15.3085 15.8562 15.4632 16.4247 15.4098 16.9932C15.3563 17.5617 15.0983 18.0914 14.6838 18.484L13.4049 19.6952C12.9921 20.0861 12.4829 20.3606 11.9294 20.4906C11.3758 20.6205 10.7977 20.6013 10.2541 20.4349C7.57463 19.6146 5.0932 17.1803 2.77634 13.1663C0.45434 9.14633 -0.422516 5.75547 0.188627 2.98519C0.311888 2.42698 0.581789 1.91174 0.970509 1.49258C1.35923 1.07343 1.8527 0.765527 2.40006 0.600616Z" fill="white"/>
</svg>
