<svg width="24" height="24" viewBox="0 0 24 24" fill="none" xmlns="http://www.w3.org/2000/svg">
<path d="M9.87832 18.36C9.31582 18.9218 8.55332 19.2374 7.75832 19.2374C6.96331 19.2374 6.20082 18.9218 5.63832 18.36C5.07651 17.7975 4.76096 17.035 4.76096 16.24C4.76096 15.445 5.07651 14.6825 5.63832 14.12L8.46832 11.29L7.05832 9.88001L4.22832 12.71C3.2917 13.648 2.76563 14.9194 2.76562 16.245C2.76562 17.5706 3.2917 18.842 4.22832 19.78C5.20832 20.75 6.47832 21.24 7.76832 21.24C9.05832 21.24 10.3283 20.75 11.3083 19.78L14.1383 16.95L12.7283 15.54L9.89832 18.37L9.87832 18.36ZM12.7083 4.22001L9.87832 7.05001L11.2883 8.46001L14.1183 5.63001C14.6808 5.0682 15.4433 4.75265 16.2383 4.75265C17.0333 4.75265 17.7958 5.0682 18.3583 5.63001C18.9201 6.19251 19.2357 6.955 19.2357 7.75001C19.2357 8.54501 18.9201 9.3075 18.3583 9.87001L15.5283 12.7L16.9383 14.11L19.7683 11.28C20.7049 10.342 21.231 9.07058 21.231 7.74501C21.231 6.41943 20.7049 5.14803 19.7683 4.21001C18.8303 3.27338 17.5589 2.74731 16.2333 2.74731C14.9077 2.74731 13.6363 3.27338 12.6983 4.21001L12.7083 4.22001Z" fill="white"/>
<path d="M16.9508 8.46005L16.2408 7.76005L15.5408 7.05005L11.2908 11.29L7.05078 15.54L7.76078 16.24L8.46078 16.95L12.7108 12.71L16.9508 8.46005Z" fill="white"/>
</svg>
