<svg width="242" height="180" viewBox="0 0 242 180" fill="none" xmlns="http://www.w3.org/2000/svg">
<path d="M242 158.182H0V158.302H242V158.182Z" fill="#EBEBEB"/>
<path d="M197.042 161.472H161.328V161.592H197.042V161.472Z" fill="#EBEBEB"/>
<path d="M54.3583 162.283H50.1523V162.404H54.3583V162.283Z" fill="#EBEBEB"/>
<path d="M206.815 165.955H197.527V166.076H206.815V165.955Z" fill="#EBEBEB"/>
<path d="M120.357 164.322H96.8008V164.443H120.357V164.322Z" fill="#EBEBEB"/>
<path d="M92.4952 164.322H80.6953V164.443H92.4952V164.322Z" fill="#EBEBEB"/>
<path d="M41.4352 162.283H25.3906V162.404H41.4352V162.283Z" fill="#EBEBEB"/>
<path d="M114.71 136.633H21.2549C20.5228 136.632 19.8211 136.341 19.3038 135.823C18.7866 135.306 18.4961 134.605 18.4961 133.874V2.7346C18.5025 2.00796 18.7958 1.31318 19.3123 0.801158C19.8289 0.289141 20.5269 0.00124477 21.2549 0H114.71C115.443 0 116.146 0.290654 116.665 0.80802C117.183 1.32539 117.474 2.02709 117.474 2.75875V133.874C117.474 134.606 117.183 135.308 116.665 135.825C116.146 136.342 115.443 136.633 114.71 136.633ZM21.2549 0.0966292C20.5549 0.097909 19.8839 0.376401 19.3894 0.870977C18.8948 1.36555 18.6171 2.0358 18.6171 2.7346V133.874C18.6171 134.573 18.8948 135.243 19.3894 135.738C19.8839 136.233 20.5549 136.511 21.2549 136.512H114.71C115.411 136.511 116.082 136.233 116.578 135.738C117.073 135.244 117.352 134.574 117.353 133.874V2.7346C117.352 2.03536 117.073 1.36512 116.578 0.870682C116.082 0.376244 115.411 0.0979063 114.71 0.0966292H21.2549Z" fill="#EBEBEB"/>
<path d="M219.4 136.633H125.939C125.207 136.632 124.505 136.341 123.987 135.824C123.469 135.307 123.177 134.606 123.176 133.874V2.7346C123.183 2.00752 123.478 1.31274 123.995 0.800856C124.512 0.288973 125.211 0.00123119 125.939 0H219.4C220.127 0.00251452 220.824 0.290973 221.339 0.802854C221.855 1.31473 222.147 2.00879 222.154 2.7346V133.874C222.154 134.604 221.864 135.305 221.348 135.822C220.832 136.339 220.131 136.631 219.4 136.633ZM125.939 0.0966292C125.239 0.0979063 124.568 0.376244 124.072 0.870682C123.577 1.36512 123.298 2.03536 123.297 2.7346V133.874C123.298 134.574 123.577 135.244 124.072 135.738C124.568 136.233 125.239 136.511 125.939 136.512H219.4C220.1 136.511 220.772 136.233 221.267 135.738C221.762 135.244 222.041 134.574 222.042 133.874V2.7346C222.041 2.03536 221.762 1.36512 221.267 0.870682C220.772 0.376244 220.1 0.0979063 219.4 0.0966292H125.939Z" fill="#EBEBEB"/>
<path d="M159.115 156.79H84.2109V158.176H159.115V156.79Z" fill="#F0F0F0"/>
<path d="M187.824 100.614C187.824 100.614 194.024 109.311 203.113 101.885C211.554 95.0002 203.259 78.3414 203.259 78.3414C203.259 78.3414 213.069 81.419 214.652 68.5046C216.235 55.5902 202.31 58.8707 202.31 58.8707C207.271 49.0242 201.584 48.7247 197.339 49.5943C198.627 47.1786 199.033 44.2121 195.97 41.7143C188.956 35.9987 184.175 42.6806 184.175 42.6806C184.175 42.6806 180.525 30.1575 171.891 37.4674V107.378C183.095 116.853 187.824 100.614 187.824 100.614Z" fill="#F5F5F5"/>
<path d="M175.124 32.2354H32.1016V158.181H175.124V32.2354Z" fill="#FAFAFA"/>
<path d="M164.834 12.668H42.3914L32.1016 32.2353H175.124L164.834 12.668Z" fill="#F0F0F0"/>
<path d="M153.641 145.252V132.319H145.239V119.39H84.0664V132.319H92.4686V145.252H100.876V158.181H162.044V145.252H153.641Z" fill="#F5F5F5"/>
<path d="M84.0686 119.39V132.319H92.4709V145.252H100.878V158.181H32.1016V119.39H84.0686Z" fill="#EBEBEB"/>
<path d="M145.239 130.932H84.0664V132.318H145.239V130.932Z" fill="#F0F0F0"/>
<path d="M153.645 143.86H92.4727V145.247H153.645V143.86Z" fill="#F0F0F0"/>
<path d="M79.8581 43.6426H39.6328V119.39H79.8581V43.6426Z" fill="#F0F0F0"/>
<path d="M38.8778 119.39H39.6328L39.6328 43.6423H38.8778L38.8778 119.39Z" fill="#E6E6E6"/>
<path d="M73.8484 83.7437C75.0807 83.7437 76.0797 82.7465 76.0797 81.5164C76.0797 80.2863 75.0807 79.2891 73.8484 79.2891C72.6161 79.2891 71.6172 80.2863 71.6172 81.5164C71.6172 82.7465 72.6161 83.7437 73.8484 83.7437Z" fill="#FAFAFA"/>
<path d="M152.3 43.6426H93.8281V101.89H152.3V43.6426Z" fill="#F5F5F5"/>
<path d="M149.859 99.1556V46.377H96.2661V99.1556H149.859Z" fill="white"/>
<path d="M96.2617 46.3818V99.1556H97.8396C97.8396 99.1556 105.071 81.8832 107.084 46.377L96.2617 46.3818Z" fill="#FAFAFA"/>
<path d="M149.861 46.3818V99.1557H148.279C148.279 99.1557 141.053 81.8833 139.039 46.3818H149.861Z" fill="#FAFAFA"/>
<path d="M151.29 70.9307H94.8359V74.6026H151.29V70.9307Z" fill="#F5F5F5"/>
<path d="M124.902 100.944V44.5898H121.224V100.944H124.902Z" fill="#F5F5F5"/>
<path d="M120.999 180C172.827 180 214.842 177.551 214.842 174.531C214.842 171.51 172.827 169.062 120.999 169.062C69.1711 169.062 27.1562 171.51 27.1562 174.531C27.1562 177.551 69.1711 180 120.999 180Z" fill="#F5F5F5"/>
<path d="M89.3395 174.53H74.0886C73.5136 174.53 72.9621 174.302 72.5554 173.896C72.1488 173.49 71.9203 172.94 71.9203 172.366V145.836H91.5078V172.371C91.5065 172.944 91.2775 173.493 90.871 173.898C90.4645 174.303 89.9137 174.53 89.3395 174.53Z" fill="#7650A3"/>
<path opacity="0.2" d="M91.5123 145.837H71.9297V157.35L91.5123 153.113V145.837Z" fill="black"/>
<path d="M99.9375 111.03C99.9375 103.727 102.844 96.7219 108.018 91.5573C113.192 86.3927 120.209 83.4912 127.526 83.4912C134.842 83.4912 141.859 86.3927 147.033 91.5573C152.207 96.7219 155.114 103.727 155.114 111.03V145.817H99.9375V111.03Z" fill="#7650A3"/>
<path opacity="0.3" d="M99.9375 111.03C99.9375 103.727 102.844 96.7219 108.018 91.5573C113.192 86.3927 120.209 83.4912 127.526 83.4912C134.842 83.4912 141.859 86.3927 147.033 91.5573C152.207 96.7219 155.114 103.727 155.114 111.03V145.817H99.9375V111.03Z" fill="black"/>
<path d="M34.9883 111.026V142.406C34.9883 142.857 35.0773 143.303 35.2503 143.72C35.4233 144.136 35.6769 144.514 35.9965 144.833C36.3161 145.152 36.6955 145.404 37.113 145.576C37.5305 145.748 37.9778 145.837 38.4295 145.836H99.9362V111.026C99.9362 103.722 102.843 96.717 108.017 91.5524C113.19 86.3878 120.207 83.4863 127.524 83.4863H62.5763C55.2595 83.4863 48.2424 86.3878 43.0686 91.5524C37.8949 96.717 34.9883 103.722 34.9883 111.026Z" fill="#7650A3"/>
<path opacity="0.2" d="M34.9934 135.564H99.9414V125.902H34.9934V135.564Z" fill="black"/>
<path opacity="0.2" d="M34.9934 122.902L99.9414 122.902V113.239H34.9934V122.902Z" fill="black"/>
<path d="M104.005 81.7959H96.1016V82.2789H104.005V81.7959Z" fill="#7650A3"/>
<path d="M91.9605 81.7959H87.7109V82.2789H91.9605V81.7959Z" fill="#7650A3"/>
<path d="M66.7526 120.08V80.9452C66.7527 80.7891 66.7187 80.635 66.6529 80.4934C66.5872 80.3519 66.4913 80.2264 66.3719 80.1256C66.2526 80.0249 66.1127 79.9513 65.9619 79.9101C65.8111 79.8689 65.6532 79.8611 65.4991 79.8871L51.8164 82.1337V87.801H62.2756V119.993C61.2194 120.477 60.3591 121.305 59.8352 122.341C59.3113 123.376 59.1549 124.559 59.3916 125.695C59.6282 126.831 60.2439 127.853 61.138 128.594C62.0321 129.336 63.1517 129.752 64.3138 129.776C65.4759 129.8 66.6116 129.43 67.5355 128.725C68.4593 128.021 69.1166 127.025 69.3997 125.9C69.6829 124.775 69.5753 123.587 69.0945 122.53C68.6136 121.474 67.788 120.612 66.7526 120.085V120.08Z" fill="#263238"/>
<path d="M103.863 149.774H174.643C175.159 149.775 175.656 149.573 176.024 149.211C176.392 148.849 176.602 148.357 176.608 147.841C176.608 147.321 176.401 146.822 176.032 146.454C175.664 146.087 175.164 145.88 174.643 145.88H99.9375C99.9439 146.915 100.36 147.905 101.096 148.635C101.831 149.365 102.826 149.774 103.863 149.774Z" fill="#7650A3"/>
<path opacity="0.2" d="M103.863 149.774H132.787C133.303 149.775 133.799 149.573 134.167 149.211C134.535 148.849 134.745 148.357 134.752 147.841C134.752 147.321 134.545 146.822 134.176 146.454C133.808 146.087 133.308 145.88 132.787 145.88H99.9375C99.9439 146.915 100.36 147.905 101.096 148.635C101.831 149.365 102.826 149.774 103.863 149.774Z" fill="black"/>
<path d="M171.568 170.251L167.474 170.285L166.355 160.82L170.455 160.786L171.568 170.251Z" fill="#FF8B7B"/>
<path opacity="0.2" d="M166.355 160.825L166.931 165.705L171.031 165.666L170.455 160.791L166.355 160.825Z" fill="black"/>
<path d="M204.845 160.217L201.321 162.304L195.586 154.685L199.109 152.598L204.845 160.217Z" fill="#FF8B7B"/>
<path opacity="0.2" d="M195.594 154.685L198.546 158.613L202.075 156.526L199.117 152.598L195.594 154.685Z" fill="black"/>
<path d="M167.465 169.811L171.942 169.772C172.024 169.773 172.105 169.8 172.171 169.85C172.237 169.899 172.286 169.969 172.309 170.048L173.394 173.676C173.421 173.76 173.429 173.85 173.415 173.938C173.401 174.025 173.366 174.108 173.313 174.179C173.261 174.251 173.192 174.309 173.112 174.348C173.033 174.387 172.945 174.407 172.856 174.406C171.24 174.406 168.902 174.319 166.869 174.338C164.498 174.338 163.443 174.507 160.66 174.531C158.975 174.531 158.385 172.85 159.077 172.691C162.228 171.966 163.859 171.869 166.501 170.14C166.784 169.94 167.119 169.826 167.465 169.811Z" fill="#263238"/>
<path d="M165.774 170.55C166.215 170.542 166.655 170.488 167.085 170.391C167.105 170.387 167.123 170.377 167.136 170.362C167.149 170.348 167.157 170.329 167.158 170.309C167.16 170.289 167.156 170.269 167.146 170.252C167.137 170.235 167.122 170.221 167.105 170.212C166.911 170.115 165.169 169.294 164.718 169.584C164.675 169.612 164.64 169.651 164.616 169.696C164.592 169.742 164.581 169.793 164.583 169.845C164.578 169.937 164.595 170.029 164.633 170.113C164.671 170.197 164.728 170.271 164.801 170.328C165.092 170.505 165.434 170.583 165.774 170.55ZM166.742 170.26C165.856 170.415 165.183 170.381 164.912 170.164C164.865 170.125 164.827 170.077 164.802 170.021C164.777 169.966 164.765 169.906 164.767 169.845C164.765 169.826 164.768 169.808 164.776 169.791C164.783 169.774 164.795 169.759 164.81 169.748C165.077 169.584 166.049 169.932 166.751 170.251L166.742 170.26Z" fill="#7650A3"/>
<path d="M167.068 170.386C167.087 170.39 167.107 170.39 167.126 170.386C167.14 170.375 167.151 170.361 167.157 170.345C167.163 170.329 167.164 170.311 167.16 170.294C167.16 170.217 166.84 168.458 165.862 168.57C165.606 168.598 165.533 168.724 165.519 168.83C165.451 169.313 166.487 170.173 167.029 170.395L167.068 170.386ZM165.945 168.739C166.53 168.739 166.826 169.705 166.913 170.11C166.375 169.806 165.654 169.11 165.693 168.84C165.693 168.84 165.693 168.758 165.867 168.739H165.945Z" fill="#7650A3"/>
<path d="M173.406 57.3156C172.869 60.4222 172.187 63.4032 171.359 66.4132C170.946 67.9142 170.489 69.4103 169.989 70.9016C169.728 71.6505 169.481 72.3945 169.186 73.1386C169.046 73.5106 168.905 73.8826 168.745 74.2546L168.518 74.8151L168.402 75.0905L168.339 75.2402L168.252 75.4287C167.855 76.2828 167.368 77.0925 166.8 77.8444C166.316 78.5256 165.788 79.1537 165.27 79.7769C164.235 80.9945 163.155 82.125 162.061 83.2363C159.877 85.4268 157.58 87.5023 155.179 89.4543L152.996 87.285C154.859 84.9224 156.737 82.5357 158.552 80.1731C159.457 78.9943 160.338 77.7961 161.161 76.6124C161.573 76.0229 161.965 75.4287 162.308 74.8489C162.619 74.3553 162.885 73.8346 163.102 73.2932C163.131 73.2352 163.199 73.0033 163.252 72.8487L163.417 72.3365C163.533 72.0032 163.634 71.6553 163.736 71.3074C163.944 70.6165 164.138 69.9112 164.336 69.2106C164.714 67.795 165.067 66.3649 165.411 64.9251C166.079 62.0262 166.722 59.0984 167.303 56.2285L173.406 57.3156Z" fill="#FF8B7B"/>
<path d="M174.853 57.8808C174.607 62.548 172.341 69.0994 172.341 69.0994L165.982 66.6837L163.363 65.7174C163.708 62.6274 164.443 59.5934 165.551 56.6875C167.487 51.7111 171.974 50.4984 174.263 54.1606C174.795 54.9868 174.936 56.3299 174.853 57.8808Z" fill="#7650A3"/>
<path opacity="0.2" d="M174.852 57.8811C174.605 62.5483 172.34 69.0998 172.34 69.0998L165.98 66.684C166.359 65.0374 166.854 63.4197 167.462 61.8429C169.049 57.6976 172.437 56.166 174.852 57.8811Z" fill="black"/>
<path d="M154.027 86.8262L149.71 87.5316L149.676 91.7591C149.676 91.7591 153.819 91.1793 155.44 89.1984L154.027 86.8262Z" fill="#FF8B7B"/>
<path d="M145.711 89.9818L145.803 92.7598L149.675 91.7597L149.704 87.5322L145.711 89.9818Z" fill="#FF8B7B"/>
<path d="M170.31 87.5323C170.31 87.5323 164.159 109.887 162.528 122.401C160.834 135.417 164.832 163.328 164.832 163.328L172.232 163.168C172.232 163.168 172.789 134.716 175.209 121.918C177.861 107.969 182.914 87.2617 182.914 87.2617L170.31 87.5323Z" fill="#263238"/>
<path d="M173.142 163.5L164.44 163.674L163.801 160.791L173.031 160.767L173.142 163.5Z" fill="#7650A3"/>
<path opacity="0.4" d="M173.142 163.5L164.44 163.674L163.801 160.791L173.031 160.767L173.142 163.5Z" fill="white"/>
<path d="M201.078 161.897L204.926 159.617C205 159.569 205.089 159.548 205.177 159.558C205.265 159.568 205.347 159.607 205.41 159.67L208.173 162.26C208.24 162.318 208.292 162.392 208.325 162.475C208.357 162.558 208.369 162.648 208.36 162.736C208.35 162.825 208.32 162.91 208.27 162.984C208.221 163.059 208.155 163.12 208.077 163.163C206.673 163.965 204.616 165.096 202.869 166.105C200.831 167.318 199.965 167.975 197.598 169.391C196.146 170.251 194.786 169.086 195.304 168.599C197.661 166.386 199.021 165.482 200.434 162.665C200.57 162.353 200.794 162.086 201.078 161.897Z" fill="#263238"/>
<path d="M199.983 163.376C200.359 163.145 200.712 162.88 201.038 162.584C201.052 162.569 201.062 162.551 201.066 162.532C201.07 162.512 201.069 162.492 201.062 162.473C201.055 162.454 201.041 162.438 201.024 162.427C201.006 162.417 200.986 162.412 200.965 162.415C200.747 162.415 198.845 162.579 198.589 163.072C198.561 163.116 198.547 163.167 198.547 163.219C198.547 163.271 198.561 163.322 198.589 163.366C198.631 163.445 198.692 163.512 198.765 163.563C198.838 163.614 198.922 163.648 199.01 163.661C199.357 163.675 199.698 163.574 199.983 163.376ZM200.685 162.632C199.997 163.212 199.397 163.521 199.053 163.468C198.994 163.459 198.937 163.436 198.887 163.402C198.838 163.368 198.797 163.322 198.768 163.27C198.758 163.253 198.752 163.234 198.752 163.214C198.752 163.194 198.758 163.175 198.768 163.159C198.923 162.898 199.915 162.709 200.685 162.632Z" fill="#7650A3"/>
<path d="M201.023 162.593C201.039 162.58 201.052 162.564 201.061 162.545C201.071 162.531 201.076 162.514 201.076 162.497C201.076 162.479 201.071 162.463 201.061 162.448C201.013 162.39 199.856 160.999 199.072 161.608C198.864 161.762 198.864 161.912 198.903 162.009C199.077 162.439 200.432 162.675 200.998 162.608L201.023 162.593ZM199.222 161.733C199.73 161.439 200.466 162.115 200.766 162.424C200.142 162.424 199.174 162.192 199.067 161.941C199.067 161.941 199.038 161.869 199.169 161.772L199.222 161.733Z" fill="#7650A3"/>
<path d="M177.961 87.3677C177.961 87.3677 177.961 109.331 178.537 121.937C179.127 135.049 195.535 157.612 195.535 157.612L201.851 153.747C201.851 153.747 190.768 132.276 190.937 119.255C191.121 105.056 192.224 87.0488 192.224 87.0488L177.961 87.3677Z" fill="#263238"/>
<path d="M202.667 153.742L195.673 158.003L193.926 156.269L201.621 151.147L202.667 153.742Z" fill="#7650A3"/>
<path opacity="0.4" d="M202.667 153.742L195.673 158.003L193.926 156.269L201.621 151.147L202.667 153.742Z" fill="white"/>
<path d="M169.804 52.18C169.804 52.18 165.23 64.6355 170.312 87.5365L192.228 87.0533C192.305 83.6955 189.842 67.3604 192.751 51.4698C190.311 51.0623 187.847 50.8153 185.375 50.7306C182.269 50.614 179.16 50.6802 176.062 50.9287C173.947 51.1825 171.854 51.6008 169.804 52.18Z" fill="#7650A3"/>
<path d="M184.245 40.2607C183.722 43.2611 183.253 48.7592 185.392 50.7111C185.392 50.7111 184.637 53.7791 179.071 53.8806C174.623 53.9627 176.08 50.9092 176.08 50.9092C179.405 50.0396 179.265 47.5659 178.63 45.2564L184.245 40.2607Z" fill="#FF8B7B"/>
<path opacity="0.2" d="M181.953 42.2949L178.633 45.2518C178.788 45.7889 178.895 46.3386 178.952 46.8945C180.225 46.6867 181.953 45.2469 182.06 43.9086C182.123 43.3687 182.087 42.8218 181.953 42.2949Z" fill="black"/>
<path opacity="0.2" d="M187.856 59.3936L191.51 62.0219C191.35 64.8193 191.302 67.5394 191.326 70.0904C189.085 67.8389 187.832 63.6984 187.856 59.3936Z" fill="black"/>
<path d="M184.59 49.2188C184.59 49.2188 183.54 51.7408 178.637 53.8859C179.425 54.2022 180.139 54.6792 180.733 55.2865C181.326 55.8938 181.786 56.618 182.083 57.4129C182.083 57.4129 185.65 54.0309 186.603 50.6489L184.59 49.2188Z" fill="white"/>
<path d="M174.975 56.4994C174.975 56.4994 176.475 54.3253 178.639 53.8856C177.879 52.958 177.095 50.8998 177.821 49.9238C177.183 50.0917 176.565 50.3265 175.977 50.6244C175.977 50.6244 173.034 52.3879 174.975 56.4994Z" fill="white"/>
<path d="M174.543 31.6709C172.544 32.5261 171.552 37.8987 174.156 39.0679C176.76 40.2371 178.328 30.0572 174.543 31.6709Z" fill="#263238"/>
<path d="M184.501 35.7534C184.337 39.8118 184.448 42.1937 182.444 44.3147C179.429 47.5083 174.381 45.7641 173.326 41.7395C172.358 38.1159 172.803 32.0766 176.738 30.3953C177.604 30.0167 178.553 29.8656 179.495 29.9562C180.436 30.0469 181.339 30.3763 182.117 30.9132C182.894 31.4501 183.522 32.1766 183.939 33.0238C184.357 33.8709 184.55 34.8105 184.501 35.7534Z" fill="#FF8B7B"/>
<path d="M178.373 37.0141C178.373 37.3426 178.213 37.6131 177.996 37.6179C177.778 37.6227 177.599 37.3571 177.594 37.0286C177.589 36.7002 177.754 36.4297 177.971 36.4249C178.189 36.42 178.368 36.6809 178.373 37.0141Z" fill="#263238"/>
<path d="M174.639 37.0913C174.639 37.4197 174.479 37.6902 174.261 37.695C174.043 37.6999 173.864 37.439 173.859 37.1058C173.855 36.7725 174.019 36.5068 174.237 36.502C174.455 36.4972 174.634 36.7628 174.639 37.0913Z" fill="#263238"/>
<path d="M175.828 37.2314C175.455 38.2478 174.944 39.2083 174.309 40.086C174.537 40.2419 174.798 40.346 175.071 40.391C175.344 40.4361 175.624 40.421 175.891 40.3468L175.828 37.2314Z" fill="#FF5652"/>
<path d="M176.878 41.2372C177.323 41.2409 177.762 41.1374 178.158 40.9356C178.554 40.7338 178.895 40.4396 179.153 40.078C179.16 40.0673 179.164 40.0554 179.166 40.0429C179.168 40.0304 179.168 40.0176 179.165 40.0054C179.161 39.9931 179.156 39.9817 179.148 39.9717C179.14 39.9618 179.13 39.9536 179.119 39.9476C179.098 39.9347 179.072 39.9305 179.048 39.9359C179.024 39.9413 179.002 39.9559 178.988 39.9766C178.745 40.3077 178.426 40.5768 178.059 40.7622C177.691 40.9477 177.285 41.0442 176.873 41.044C176.861 41.0446 176.848 41.0477 176.837 41.0532C176.825 41.0586 176.815 41.0662 176.806 41.0757C176.798 41.0851 176.791 41.0961 176.787 41.1081C176.783 41.12 176.781 41.1327 176.781 41.1454C176.783 41.1702 176.793 41.1935 176.811 41.2106C176.829 41.2277 176.853 41.2372 176.878 41.2372Z" fill="#263238"/>
<path d="M179.472 35.7867C179.516 35.7853 179.558 35.7701 179.593 35.7432C179.633 35.7111 179.658 35.6646 179.664 35.614C179.669 35.5633 179.654 35.5126 179.622 35.4728C179.437 35.2271 179.195 35.0292 178.917 34.8956C178.639 34.762 178.333 34.6966 178.025 34.7048C177.974 34.7093 177.926 34.7339 177.893 34.7733C177.86 34.8127 177.844 34.8636 177.848 34.9149C177.853 34.9661 177.878 35.0135 177.917 35.0466C177.957 35.0796 178.008 35.0957 178.059 35.0912C178.303 35.0889 178.543 35.1437 178.762 35.251C178.98 35.3584 179.171 35.5154 179.317 35.7094C179.335 35.7337 179.358 35.7534 179.385 35.7668C179.412 35.7803 179.442 35.7871 179.472 35.7867Z" fill="#263238"/>
<path d="M172.969 35.8444C173.006 35.844 173.042 35.8334 173.074 35.8139C173.105 35.7943 173.131 35.7664 173.148 35.7333C173.243 35.507 173.392 35.3071 173.582 35.1506C173.771 34.9942 173.996 34.8859 174.237 34.8349C174.288 34.8266 174.333 34.7987 174.364 34.7572C174.395 34.7157 174.408 34.6639 174.401 34.6128C174.392 34.5624 174.364 34.5175 174.322 34.487C174.281 34.4565 174.23 34.4428 174.179 34.4486C173.877 34.5131 173.596 34.6485 173.358 34.8434C173.12 35.0382 172.931 35.2871 172.809 35.5691C172.798 35.5918 172.791 35.6166 172.789 35.642C172.788 35.6674 172.792 35.6928 172.8 35.7167C172.809 35.7406 172.822 35.7625 172.839 35.7812C172.857 35.7998 172.878 35.8147 172.901 35.8251C172.922 35.8358 172.945 35.8424 172.969 35.8444Z" fill="#263238"/>
<path d="M193.454 54.3545C194.368 55.6686 195.172 56.9538 195.999 58.2776C196.827 59.6014 197.592 60.9349 198.352 62.2877C199.892 65.0276 201.263 67.8593 202.456 70.7669C202.611 71.1293 202.746 71.5158 202.887 71.8926L203.1 72.4627L203.206 72.7526L203.332 73.1488C203.64 74.1901 203.752 75.2796 203.661 76.3617C203.47 78.2525 202.838 80.0724 201.817 81.6763C200.928 83.1084 199.87 84.4287 198.666 85.6091C198.09 86.1889 197.48 86.7251 196.861 87.2421C196.233 87.7592 195.579 88.243 194.901 88.6915L192.931 86.3338C193.362 85.8506 193.85 85.2516 194.286 84.6959C194.722 84.1403 195.148 83.5461 195.549 82.9663C196.332 81.8521 197.005 80.6644 197.558 79.42C198.039 78.3842 198.292 77.2571 198.298 76.1153C198.281 75.6794 198.189 75.2497 198.027 74.8446L197.64 73.9846C197.49 73.6658 197.355 73.3421 197.19 73.0183C195.941 70.4335 194.499 67.8632 192.984 65.3219C191.469 62.7805 189.882 60.2295 188.309 57.7896L193.454 54.3545Z" fill="#FF8B7B"/>
<path d="M192.747 51.48C196.575 52.3062 202.083 64.0949 202.083 64.0949L191.827 69.0906C190.003 66.3059 188.487 63.3316 187.307 60.2201C185.521 55.2389 188.647 50.591 192.747 51.48Z" fill="#7650A3"/>
<path d="M189.101 81.7967L199.405 112.182C199.806 113.374 199.717 114.676 199.16 115.804C198.602 116.932 197.62 117.794 196.429 118.202L127.163 141.644C125.968 142.044 124.662 141.956 123.531 141.397C122.401 140.838 121.539 139.855 121.133 138.663L110.833 108.288C110.635 107.712 110.553 107.103 110.591 106.495C110.647 105.551 110.983 104.645 111.556 103.892C112.129 103.139 112.914 102.574 113.81 102.268L183.09 78.8254C183.987 78.5241 184.954 78.4964 185.866 78.746C186.779 78.9955 187.597 79.511 188.215 80.2265C188.611 80.6864 188.912 81.2201 189.101 81.7967Z" fill="#7650A3"/>
<path opacity="0.8" d="M189.101 81.7967L199.405 112.182C199.806 113.374 199.717 114.676 199.16 115.804C198.602 116.932 197.62 117.794 196.429 118.202L127.163 141.644C125.968 142.044 124.662 141.956 123.531 141.397C122.401 140.838 121.539 139.855 121.133 138.663L110.833 108.288C110.635 107.712 110.553 107.103 110.591 106.495C110.647 105.551 110.983 104.645 111.556 103.892C112.129 103.139 112.914 102.574 113.81 102.268L183.09 78.8254C183.987 78.5241 184.954 78.4964 185.866 78.746C186.779 78.9955 187.597 79.511 188.215 80.2265C188.611 80.6864 188.912 81.2201 189.101 81.7967Z" fill="white"/>
<path opacity="0.6" d="M188.195 80.2263L159.538 105.809C158.097 107.094 156.411 108.075 154.581 108.693C152.752 109.312 150.816 109.555 148.89 109.408L110.566 106.509C110.622 105.565 110.958 104.659 111.531 103.906C112.104 103.154 112.889 102.588 113.785 102.282L183.065 78.8397C183.961 78.5356 184.928 78.5052 185.842 78.7521C186.756 78.9991 187.575 79.5124 188.195 80.2263Z" fill="#7650A3"/>
<path d="M193.963 85.7686L189.559 85.7975L192.274 90.2376C192.274 90.2376 195.41 89.4791 195.701 87.9041L193.963 85.7686Z" fill="#FF8B7B"/>
<path d="M186.809 88.401L189.224 91.9715L192.278 90.237L189.563 85.7969L186.809 88.401Z" fill="#FF8B7B"/>
<path d="M187.278 32.5022C188.246 35.1498 185.318 41.2809 183.614 41.165C181.911 41.049 181.446 34.6764 182.414 33.0916C181.494 33.5168 172.734 33.5313 172.778 32.6085C173 29.2555 178.958 28.038 185.492 29.7096C187.191 29.6275 187.825 30.0913 187.278 32.5022Z" fill="#263238"/>
<path d="M186.43 40.1735C186.171 40.6081 185.828 40.9869 185.42 41.288C185.013 41.5891 184.55 41.8064 184.058 41.9273C182.742 42.2462 182.122 41.0624 182.539 39.8449C182.902 38.7482 184.024 37.2649 185.331 37.4872C186.638 37.7094 187.069 39.096 186.43 40.1735Z" fill="#FF8B7B"/>
<path d="M167.552 30.9217L187.657 33.2401C187.759 33.251 187.86 33.2216 187.94 33.1584C188.02 33.0951 188.071 33.003 188.083 32.902C188.094 32.8017 188.065 32.701 188.003 32.6216C187.941 32.5422 187.85 32.4903 187.749 32.477L167.639 30.1634C167.539 30.1525 167.438 30.1812 167.358 30.2435C167.278 30.3057 167.226 30.3966 167.213 30.4967C167.202 30.5978 167.232 30.6991 167.295 30.7786C167.359 30.8582 167.451 30.9096 167.552 30.9217Z" fill="#7650A3"/>
<path d="M188.089 32.8836L188.438 29.8882C188.434 29.5606 188.308 29.2463 188.084 29.0068C187.86 28.7672 187.555 28.6198 187.228 28.5933L174.881 26.2646C173.966 26.0906 173.124 26.6028 173.129 27.3275V31.1637L188.089 32.8836Z" fill="#7650A3"/>
<path d="M174.277 30.2791L179.505 30.8829L179.684 29.3614L174.282 28.7432L174.277 30.2791Z" fill="white"/>
</svg>
