<svg width="32" height="32" viewBox="0 0 32 32" fill="none" xmlns="http://www.w3.org/2000/svg">
<g clip-path="url(#clip0_872_113337)">
<path d="M13 3C13 2.73478 12.8946 2.48043 12.7071 2.29289C12.5196 2.10536 12.2652 2 12 2C11.7348 2 11.4804 2.10536 11.2929 2.29289C11.1054 2.48043 11 2.73478 11 3V4H7C6.20435 4 5.44129 4.31607 4.87868 4.87868C4.31607 5.44129 4 6.20435 4 7V13C4 13.7956 4.31607 14.5587 4.87868 15.1213C5.44129 15.6839 6.20435 16 7 16H12.176C12.2613 15.7707 12.376 15.554 12.52 15.35C12.86 14.87 13.34 14.51 13.9 14.308L14.86 14H7C6.73478 14 6.48043 13.8946 6.29289 13.7071C6.10536 13.5196 6 13.2652 6 13V7C6 6.73478 6.10536 6.48043 6.29289 6.29289C6.48043 6.10536 6.73478 6 7 6H17C17.2652 6 17.5196 6.10536 17.7071 6.29289C17.8946 6.48043 18 6.73478 18 7V10.754L18.266 9.94C18.486 9.34 18.846 8.86 19.326 8.52C19.538 8.368 19.7627 8.25 20 8.166V7C20 6.20435 19.6839 5.44129 19.1213 4.87868C18.5587 4.31607 17.7956 4 17 4H13V3ZM5 19H12.826C13.1375 19.3173 13.52 19.5559 13.942 19.696L16.062 20.396C16.364 20.498 16.644 20.658 17.004 20.978L17.024 21H5C4.73478 21 4.48043 21.1054 4.29289 21.2929C4.10536 21.4804 4 21.7348 4 22V22.7C4 24.59 4.816 25.85 6.164 26.688C7.572 27.564 9.61 28 12 28C14.406 28 16.444 27.562 17.846 26.688C18.41 26.338 18.88 25.912 19.236 25.396L19.346 25.486C19.626 25.686 19.926 25.826 20.246 25.906C20.0148 26.4036 19.9469 26.9615 20.052 27.5C19.701 27.8343 19.3163 28.1312 18.904 28.386C17.056 29.54 14.594 30 12 30C9.42 30 6.958 29.536 5.108 28.386C3.198 27.2 2 25.31 2 22.7V22C2 21.2043 2.31607 20.4413 2.87868 19.8787C3.44129 19.3161 4.20435 19 5 19ZM10.5 10C10.5 10.3978 10.342 10.7794 10.0607 11.0607C9.77936 11.342 9.39782 11.5 9 11.5C8.60217 11.5 8.22064 11.342 7.93934 11.0607C7.65803 10.7794 7.5 10.3978 7.5 10C7.5 9.60217 7.65803 9.22064 7.93934 8.93934C8.22064 8.65803 8.60217 8.5 9 8.5C9.39782 8.5 9.77936 8.65803 10.0607 8.93934C10.342 9.22064 10.5 9.60217 10.5 10ZM15 11.5C15.3978 11.5 15.7794 11.342 16.0607 11.0607C16.342 10.7794 16.5 10.3978 16.5 10C16.5 9.60217 16.342 9.22064 16.0607 8.93934C15.7794 8.65803 15.3978 8.5 15 8.5C14.6022 8.5 14.2206 8.65803 13.9393 8.93934C13.658 9.22064 13.5 9.60217 13.5 10C13.5 10.3978 13.658 10.7794 13.9393 11.0607C14.2206 11.342 14.6022 11.5 15 11.5ZM21.756 10.564L22.452 12.706C22.6678 13.3575 23.0331 13.9495 23.5186 14.4346C24.0041 14.9198 24.5963 15.2846 25.248 15.5L27.392 16.196L27.434 16.208C27.5992 16.2662 27.7423 16.3742 27.8435 16.5171C27.9447 16.66 27.9991 16.8309 27.9991 17.006C27.9991 17.1811 27.9447 17.352 27.8435 17.4949C27.7423 17.6378 27.5992 17.7458 27.434 17.804L25.292 18.5C24.64 18.7151 24.0473 19.0798 23.5615 19.565C23.0756 20.0501 22.71 20.6423 22.494 21.294L21.798 23.434C21.7398 23.5992 21.6318 23.7423 21.4889 23.8435C21.346 23.9447 21.1751 23.9991 21 23.9991C20.8249 23.9991 20.654 23.9447 20.5111 23.8435C20.3682 23.7423 20.2602 23.5992 20.202 23.434L19.506 21.294C19.2559 20.5363 18.8045 19.8609 18.2 19.34C17.7629 18.9605 17.2552 18.671 16.706 18.488L14.562 17.792C14.3968 17.7338 14.2537 17.6258 14.1525 17.4829C14.0513 17.34 13.9969 17.1691 13.9969 16.994C13.9969 16.8189 14.0513 16.648 14.1525 16.5051C14.2537 16.3622 14.3968 16.2542 14.562 16.196L16.706 15.5C17.3499 15.2791 17.9338 14.9117 18.4116 14.4269C18.8895 13.9421 19.2484 13.353 19.46 12.706L20.156 10.566C20.2137 10.4001 20.3217 10.2563 20.4649 10.1545C20.608 10.0527 20.7793 9.99805 20.955 9.99805C21.1307 9.99805 21.302 10.0527 21.4451 10.1545C21.5883 10.2563 21.6963 10.4001 21.754 10.566M31.564 26.428L30.034 25.932C29.5686 25.7773 29.1456 25.5164 28.7985 25.17C28.4513 24.8236 28.1896 24.4011 28.034 23.936L27.538 22.406C27.4966 22.2879 27.4195 22.1855 27.3174 22.1131C27.2153 22.0407 27.0932 22.0018 26.968 22.0018C26.8428 22.0018 26.7207 22.0407 26.6186 22.1131C26.5165 22.1855 26.4394 22.2879 26.398 22.406L25.898 23.936C25.7458 24.3975 25.4893 24.8176 25.1483 25.1638C24.8073 25.51 24.3911 25.7728 23.932 25.932L22.402 26.428C22.314 26.4594 22.2344 26.5107 22.1694 26.5779C22.1045 26.6451 22.056 26.7265 22.0277 26.8155C21.9994 26.9046 21.9922 26.999 22.0064 27.0914C22.0207 27.1838 22.0562 27.2716 22.11 27.348C22.182 27.448 22.284 27.528 22.402 27.568L23.932 28.066C24.3982 28.2215 24.8218 28.4836 25.169 28.8315C25.5162 29.1794 25.7774 29.6034 25.932 30.07L26.428 31.598C26.4694 31.7161 26.5465 31.8185 26.6486 31.8909C26.7507 31.9633 26.8728 32.0022 26.998 32.0022C27.1232 32.0022 27.2453 31.9633 27.3474 31.8909C27.4495 31.8185 27.5266 31.7161 27.568 31.598L28.066 30.07C28.2211 29.6048 28.4825 29.182 28.8292 28.8352C29.176 28.4885 29.5988 28.2271 30.064 28.072L31.594 27.576C31.7121 27.5346 31.8145 27.4575 31.8869 27.3554C31.9593 27.2533 31.9982 27.1312 31.9982 27.006C31.9982 26.8808 31.9593 26.7587 31.8869 26.6566C31.8145 26.5545 31.7121 26.4774 31.594 26.436L31.564 26.428Z" fill="white"/>
</g>
<defs>
<clipPath id="clip0_872_113337">
<rect width="32" height="32" fill="white"/>
</clipPath>
</defs>
</svg>
